<svg width="15" height="15" viewBox="0 0 15 15" fill="none" xmlns="http://www.w3.org/2000/svg">
<path d="M13.9656 13.3484C13.9656 13.2124 13.9111 13.0819 13.8141 12.9856C13.7171 12.8894 13.5855 12.8353 13.4483 12.8353H1.55176C1.41458 12.8353 1.28301 12.8894 1.18601 12.9856C1.08901 13.0819 1.03452 13.2124 1.03452 13.3484C1.03452 13.4845 1.08901 13.615 1.18601 13.7113C1.28301 13.8075 1.41458 13.8616 1.55176 13.8616H13.4483C13.5855 13.8616 13.7171 13.8075 13.8141 13.7113C13.9111 13.615 13.9656 13.4845 13.9656 13.3484ZM13.4483 9.50017H1.55176C1.41458 9.50017 1.28301 9.55423 1.18601 9.65046C1.08901 9.74668 1.03452 9.87719 1.03452 10.0133C1.03452 10.1494 1.08901 10.2799 1.18601 10.3761C1.28301 10.4723 1.41458 10.5264 1.55176 10.5264H13.4483C13.5855 10.5264 13.7171 10.4723 13.8141 10.3761C13.9111 10.2799 13.9656 10.1494 13.9656 10.0133C13.9656 9.87719 13.9111 9.74668 13.8141 9.65046C13.7171 9.55423 13.5855 9.50017 13.4483 9.50017ZM4.47934 5.91101C5.37676 5.81865 5.9871 5.40561 6.29486 4.68213C4.78452 4.82067 3.49917 5.21576 2.69745 5.75708C3.08564 5.88587 3.49322 5.94821 3.90262 5.9418C4.09526 5.94129 4.28776 5.93102 4.47934 5.91101ZM10.5207 5.91101C10.7124 5.93102 10.9048 5.94129 11.0974 5.9418C11.5068 5.94828 11.9143 5.88582 12.3026 5.75708C11.5009 5.21576 10.213 4.8181 8.70262 4.68213C9.01038 5.40561 9.62331 5.81865 10.5207 5.91101Z" fill="white"/>
<path d="M14.6717 2.57325C13.9295 2.8298 13.6812 3.85601 13.6812 3.85601C13.6812 3.85601 12.6933 4.11256 12.6933 4.62566C12.6933 5.13876 13.6812 5.39532 13.6812 5.39532C13.4505 5.72246 13.1301 5.97711 12.758 6.12905C12.0355 6.43251 11.243 6.53367 10.4666 6.42152C9.98876 6.38357 9.52775 6.22937 9.12433 5.97256C8.65191 5.65314 8.30342 5.18345 8.1364 4.64105C8.05197 4.38732 8.00409 4.12303 7.99416 3.85601C7.99416 3.85601 9.23036 3.59945 9.23036 3.08635C9.23036 2.57325 8.24243 2.31669 8.24243 2.31669C8.24243 2.31669 8.24243 1.29049 7.50019 1.03394C6.75795 1.29049 6.75795 2.31669 6.75795 2.31669C6.75795 2.31669 5.77002 2.57325 5.77002 3.08635C5.77002 3.59945 7.00623 3.85601 7.00623 3.85601C6.9963 4.12303 6.94841 4.38732 6.86398 4.64105C6.6364 5.33631 6.04933 6.26503 4.53381 6.42152C3.75743 6.53367 2.96491 6.43251 2.24243 6.12905C1.87026 5.97711 1.54984 5.72246 1.31916 5.39532C1.31916 5.39532 2.30709 5.13876 2.30709 4.62566C2.30709 4.11256 1.31916 3.85601 1.31916 3.85601C1.31916 3.85601 1.07088 2.8298 0.328639 2.57325C0.0751909 2.48602 0.00794951 2.72461 0.0027771 2.92472C0.0105588 3.50645 0.0834189 4.08553 0.220019 4.65132C0.388122 5.51846 0.591656 6.37868 0.830363 7.23223C0.991917 7.83475 1.19321 8.4261 1.43295 9.00243C1.47174 8.99217 1.51183 8.98704 1.55192 8.98704H13.4485C13.4886 8.98704 13.5286 8.99217 13.5674 9.00243C13.8072 8.4261 14.0085 7.83475 14.17 7.23223C14.4105 6.38048 14.6141 5.52026 14.7804 4.65132C14.917 4.08553 14.9898 3.50645 14.9976 2.92472C14.9924 2.72461 14.9252 2.48602 14.6717 2.57325ZM1.55192 11.0395V12.3222H13.4485V11.0395H1.55192ZM3.36226 11.9374C3.34524 11.9374 3.3284 11.934 3.3127 11.9275C3.29699 11.921 3.28272 11.9115 3.27072 11.8996C3.25871 11.8876 3.24919 11.8734 3.24271 11.8578C3.23623 11.8422 3.23292 11.8255 3.23295 11.8086C3.23298 11.7917 3.23637 11.775 3.24291 11.7594C3.24945 11.7438 3.25903 11.7297 3.27108 11.7178C3.28314 11.7059 3.29744 11.6964 3.31317 11.69C3.32891 11.6836 3.34576 11.6803 3.36278 11.6803C3.39714 11.6804 3.43007 11.694 3.45432 11.7182C3.47857 11.7423 3.49216 11.775 3.49209 11.8091C3.49202 11.8432 3.4783 11.8759 3.45395 11.8999C3.42961 11.924 3.39662 11.9375 3.36226 11.9374ZM5.43123 11.9374C5.41421 11.9374 5.39737 11.934 5.38166 11.9275C5.36595 11.921 5.35169 11.9115 5.33968 11.8996C5.32767 11.8876 5.31816 11.8734 5.31168 11.8578C5.3052 11.8422 5.30188 11.8255 5.30192 11.8086C5.30195 11.7917 5.30533 11.775 5.31188 11.7594C5.31842 11.7438 5.32799 11.7297 5.34005 11.7178C5.3521 11.7059 5.36641 11.6964 5.38214 11.69C5.39787 11.6836 5.41473 11.6803 5.43174 11.6803C5.46611 11.6804 5.49904 11.694 5.52329 11.7182C5.54754 11.7423 5.56112 11.775 5.56105 11.8091C5.56099 11.8432 5.54727 11.8759 5.52292 11.8999C5.49857 11.924 5.46559 11.9375 5.43123 11.9374ZM7.50019 11.9374C7.48318 11.9374 7.46633 11.934 7.45063 11.9275C7.43492 11.921 7.42066 11.9115 7.40865 11.8996C7.39664 11.8876 7.38713 11.8734 7.38064 11.8578C7.37417 11.8422 7.37085 11.8255 7.37088 11.8086C7.37091 11.7917 7.3743 11.775 7.38084 11.7594C7.38739 11.7438 7.39696 11.7297 7.40901 11.7178C7.42107 11.7059 7.43537 11.6964 7.45111 11.69C7.46684 11.6836 7.48369 11.6803 7.50071 11.6803C7.53507 11.6804 7.568 11.694 7.59225 11.7182C7.6165 11.7423 7.63009 11.775 7.63002 11.8091C7.62995 11.8432 7.61623 11.8759 7.59189 11.8999C7.56754 11.924 7.53456 11.9375 7.50019 11.9374ZM9.56916 11.9374C9.53583 11.9359 9.50436 11.9217 9.4813 11.8978C9.45825 11.8739 9.44538 11.8421 9.44538 11.809C9.44538 11.7759 9.45825 11.7441 9.4813 11.7201C9.50436 11.6962 9.53583 11.6821 9.56916 11.6806C9.60176 11.6831 9.6322 11.6977 9.65441 11.7215C9.67662 11.7453 9.68896 11.7765 9.68896 11.809C9.68896 11.8414 9.67662 11.8727 9.65441 11.8965C9.6322 11.9203 9.60176 11.9349 9.56916 11.9374ZM11.6381 11.9374C11.6048 11.9359 11.5733 11.9217 11.5503 11.8978C11.5272 11.8739 11.5143 11.8421 11.5143 11.809C11.5143 11.7759 11.5272 11.7441 11.5503 11.7201C11.5733 11.6962 11.6048 11.6821 11.6381 11.6806C11.6707 11.6831 11.7012 11.6977 11.7234 11.7215C11.7456 11.7453 11.7579 11.7765 11.7579 11.809C11.7579 11.8414 11.7456 11.8727 11.7234 11.8965C11.7012 11.9203 11.6707 11.9349 11.6381 11.9374Z" fill="white"/>
</svg>
