<svg height="512" viewBox="0 0 58 50" width="512" xmlns="http://www.w3.org/2000/svg"><path d="M54 48a2 2 0 00-2-2H6a2 2 0 100 4h46a2 2 0 002-2zM52 33H6a2 2 0 100 4h46a2 2 0 100-4zM17.32 19.01c3.47-.36 5.83-1.97 7.02-4.79-5.84.54-10.81 2.08-13.91 4.19 1.501.502 3.077.745 4.66.72a21.858 21.858 0 002.23-.12zM40.68 19.01c.741.078 1.485.118 2.23.12a13.996 13.996 0 004.66-.72c-3.1-2.11-8.08-3.66-13.92-4.19 1.19 2.82 3.56 4.43 7.03 4.79z"/><path d="M56.73 6c-2.87 1-3.83 5-3.83 5s-3.82 1-3.82 3 3.82 3 3.82 3a8.135 8.135 0 01-3.57 2.86A16.592 16.592 0 0140.47 21a11.276 11.276 0 01-5.19-1.75 9.716 9.716 0 01-3.82-5.19 11.064 11.064 0 01-.55-3.06s4.78-1 4.78-3-3.82-3-3.82-3 0-4-2.87-5c-2.87 1-2.87 5-2.87 5s-3.82 1-3.82 3 4.78 3 4.78 3a11.064 11.064 0 01-.55 3.06c-.88 2.71-3.15 6.33-9.01 6.94a16.592 16.592 0 01-8.86-1.14A8.135 8.135 0 015.1 17s3.82-1 3.82-3-3.82-3-3.82-3-.96-4-3.83-5C.29 5.66.03 6.59.01 7.37a30.64 30.64 0 00.84 6.73c.65 3.38 1.437 6.733 2.36 10.06a55.468 55.468 0 002.33 6.9c.15-.04.305-.06.46-.06h46c.155 0 .31.02.46.06a55.468 55.468 0 002.33-6.9c.93-3.32 1.717-6.673 2.36-10.06a30.64 30.64 0 00.84-6.73c-.02-.78-.28-1.71-1.26-1.37zM6 39v5h46v-5zm7 3.5a.5.5 0 11.002-1.002A.5.5 0 0113 42.5zm8 0a.5.5 0 11.002-1.002A.5.5 0 0121 42.5zm8 0a.5.5 0 11.002-1.002A.5.5 0 0129 42.5zm8 0a.501.501 0 010-1.001.502.502 0 010 1.001zm8 0a.501.501 0 010-1.001.502.502 0 010 1.001z"/></svg>