<svg width="38" height="38" viewBox="0 0 38 38" fill="none" xmlns="http://www.w3.org/2000/svg">
<g clip-path="url(#clip0)">
<path d="M5.62714 38.4146H18.1569V24.7594H13.6552V20.2577H18.1569V14.6306C18.1569 11.5277 20.6812 9.00343 23.7841 9.00343H29.4112V13.5051H24.9095C23.6683 13.5051 22.6586 14.5148 22.6586 15.756V20.2577H29.2081L28.4578 24.7594H22.6586V38.4146H32.7875C35.8903 38.4146 38.4146 35.8903 38.4146 32.7875V5.62714C38.4146 2.5243 35.8903 0 32.7875 0H5.62714C2.5243 0 0 2.5243 0 5.62714V32.7875C0 35.8903 2.5243 38.4146 5.62714 38.4146ZM2.25086 5.62714C2.25086 3.7655 3.7655 2.25086 5.62714 2.25086H32.7875C34.6491 2.25086 36.1638 3.7655 36.1638 5.62714V32.7875C36.1638 34.6491 34.6491 36.1638 32.7875 36.1638H24.9095V27.0103H30.3646L31.8652 18.0069H24.9095V15.756H31.6621V6.75257H23.7841C19.44 6.75257 15.9061 10.2865 15.9061 14.6306V18.0069H11.4043V27.0103H15.9061V36.1638H5.62714C3.7655 36.1638 2.25086 34.6491 2.25086 32.7875V5.62714Z" fill="#4064AD"/>
</g>
<defs>
<clipPath id="clip0">
<rect width="38" height="38" fill="white"/>
</clipPath>
</defs>
</svg>
