<svg width="40" height="38" viewBox="0 0 40 38" fill="none" xmlns="http://www.w3.org/2000/svg">
<path d="M5.85938 38H34.1406C37.3715 38 40 35.5029 40 32.4336V5.56641C40 2.49706 37.3715 0 34.1406 0H5.85938C2.62848 0 0 2.49706 0 5.56641V32.4336C0 35.5029 2.62848 38 5.85938 38ZM2.34375 5.56641C2.34375 3.72485 3.9209 2.22656 5.85938 2.22656H34.1406C36.0791 2.22656 37.6562 3.72485 37.6562 5.56641V32.4336C37.6562 34.2751 36.0791 35.7734 34.1406 35.7734H5.85938C3.9209 35.7734 2.34375 34.2751 2.34375 32.4336V5.56641Z" fill="#CD2D86"/>
<path d="M20 29.0195C25.8154 29.0195 30.5469 24.5247 30.5469 19C30.5469 13.4753 25.8154 8.98047 20 8.98047C14.1846 8.98047 9.45312 13.4753 9.45312 19C9.45312 24.5247 14.1846 29.0195 20 29.0195ZM20 11.207C24.5233 11.207 28.2031 14.7029 28.2031 19C28.2031 23.2971 24.5233 26.793 20 26.793C15.4767 26.793 11.7969 23.2971 11.7969 19C11.7969 14.7029 15.4767 11.207 20 11.207Z" fill="#CD2D86"/>
<path d="M31.7188 11.207C33.6572 11.207 35.2344 9.70874 35.2344 7.86719C35.2344 6.02563 33.6572 4.52734 31.7188 4.52734C29.7803 4.52734 28.2031 6.02563 28.2031 7.86719C28.2031 9.70874 29.7803 11.207 31.7188 11.207ZM31.7188 6.75391C32.3648 6.75391 32.8906 7.25343 32.8906 7.86719C32.8906 8.48094 32.3648 8.98047 31.7188 8.98047C31.0727 8.98047 30.5469 8.48094 30.5469 7.86719C30.5469 7.25343 31.0727 6.75391 31.7188 6.75391Z" fill="#CD2D86"/>
</svg>
