<svg width="180" height="180" viewBox="0 0 180 180" fill="none" xmlns="http://www.w3.org/2000/svg">
<path d="M72.3131 42.1565C76.8145 40.2688 78.7022 34.8961 76.6693 30.5399L69.5541 15.5836C67.5212 11.3741 62.5842 9.48493 58.228 11.3741C45.8854 16.6015 35.2853 23.4262 26.8633 31.703C16.5536 41.4305 9.58366 52.6114 5.80828 64.954C2.0329 77.4432 0 94.431 0 116.067V160.645C0 165.437 3.92059 169.358 8.71242 169.358H65.7788C70.5706 169.358 74.4912 165.437 74.4912 160.645V103.579C74.4912 98.7858 70.5706 94.8666 65.7788 94.8666H38.4798C38.7703 80.1993 42.2552 68.4389 48.6443 59.5799C53.8718 52.4676 61.713 46.6594 72.3131 42.1565ZM174.829 42.1565C179.331 40.2688 181.217 34.8961 179.185 30.5399L172.07 15.7303C170.037 11.5193 165.1 9.63159 160.744 11.5193C148.547 16.7467 138.09 23.5715 129.525 31.703C119.213 41.5771 112.1 52.7581 108.323 65.1006C104.548 77.2966 102.661 94.2872 102.661 116.068V160.647C102.661 165.439 106.582 169.359 111.374 169.359H168.44C173.232 169.359 177.152 165.439 177.152 160.647V103.58C177.152 98.7872 173.232 94.8681 168.44 94.8681H140.996C141.286 80.2007 144.773 68.4404 151.16 59.5813C156.388 52.4676 164.229 46.6594 174.829 42.1565Z" fill="white" fill-opacity="0.2"/>
</svg>
