<svg width="60" height="50" viewBox="0 0 60 50" fill="none" xmlns="http://www.w3.org/2000/svg">
<path d="M14.5144 6.9958H12.382C12.7028 5.01699 14.0157 4.91757 14.62 4.87177C15.2236 4.82597 15.6857 4.40429 15.6857 3.89921V0.976851C15.6857 0.708393 15.553 0.451655 15.3189 0.267183C15.0847 0.0827099 14.7695 -0.0128955 14.448 0.00185055C10.7437 0.175483 6.32812 1.73408 6.32812 8.17334V13.2554C6.32812 14.1037 7.15629 14.7938 8.1743 14.7938H14.5145C15.5325 14.7938 16.3607 14.1036 16.3605 13.2553V8.53427C16.3605 7.68593 15.5324 6.9958 14.5144 6.9958ZM14.0169 12.8406H8.67187V8.17334C8.67187 3.68017 11.0696 2.42529 13.3419 2.07109V3.09785C11.7727 3.49589 9.96656 4.67148 9.96656 7.97236C9.96656 8.51171 10.4912 8.94892 11.1384 8.94892H14.0169V12.8406Z" fill="white"/>
<path d="M26.495 6.9958H24.3626C24.6833 5.01699 25.9963 4.91757 26.6005 4.87177C27.2041 4.82597 27.6662 4.40429 27.6662 3.89921V0.976851C27.6662 0.708393 27.5336 0.451655 27.2994 0.267183C27.0653 0.0827099 26.7498 -0.0128955 26.4286 0.00185055C22.7243 0.175483 18.3087 1.73408 18.3087 8.17334V13.2554C18.3087 14.1037 19.1368 14.7938 20.1548 14.7938H26.495C27.513 14.7938 28.3413 14.1036 28.3412 13.2552V8.53427C28.3412 7.68593 27.513 6.9958 26.495 6.9958ZM25.9975 12.8407H20.6524V8.17334C20.6524 3.68017 23.0502 2.42529 25.3225 2.07109V3.09785C23.7532 3.49589 21.9471 4.67148 21.9471 7.97236C21.9471 8.51171 22.4718 8.94892 23.119 8.94892H25.9975V12.8407Z" fill="white"/>
<path d="M33.4066 7.89014C33.1887 7.7085 32.8863 7.604 32.5781 7.604C32.2699 7.604 31.9676 7.7085 31.7496 7.89014C31.5316 8.07178 31.4062 8.32373 31.4062 8.58057C31.4062 8.8374 31.5316 9.08936 31.7496 9.271C31.9676 9.45264 32.2699 9.55713 32.5781 9.55713C32.8863 9.55713 33.1887 9.45264 33.4066 9.271C33.6246 9.08936 33.75 8.8374 33.75 8.58057C33.75 8.32373 33.6246 8.07178 33.4066 7.89014Z" fill="white"/>
<path d="M39.1719 7.60388H37.6952C37.048 7.60388 36.5234 8.04109 36.5234 8.58044C36.5234 9.1198 37.048 9.55701 37.6952 9.55701H39.1719C49.3642 9.55701 57.6562 16.4671 57.6562 24.9606C57.6562 32.2098 51.4866 38.5497 42.9859 40.0353C42.4432 40.1303 42.0546 40.5291 42.0546 40.9911V46.6653L34.8366 40.6503C34.6168 40.4672 34.3187 40.3642 34.0079 40.3642H20.8281C10.6358 40.3642 2.34375 33.4542 2.34375 24.9606C2.34375 22.3429 3.14566 19.7581 4.66289 17.4852C4.97766 17.0139 4.7741 16.4193 4.20855 16.1571C3.64289 15.8948 2.92934 16.0644 2.6148 16.5357C0.904102 19.0981 0 22.0114 0 24.9606C0 34.5312 9.34336 42.3174 20.8281 42.3174H33.5225L42.3979 49.7135C42.622 49.9003 42.9217 49.9995 43.2267 49.9995C43.3777 49.9995 43.53 49.9752 43.675 49.9251C44.1128 49.774 44.3984 49.4179 44.3984 49.0229V41.765C48.6386 40.8494 52.4726 38.812 55.2742 35.9698C58.3216 32.8783 60 28.9685 60 24.9606C60 15.3901 50.6566 7.60398 39.1719 7.60388Z" fill="white"/>
<path d="M44.4216 17.3332H15.5786C14.9313 17.3332 14.4067 17.7704 14.4067 18.3098C14.4067 18.8491 14.9313 19.2863 15.5786 19.2863H44.4214C45.0687 19.2863 45.5934 18.8491 45.5934 18.3098C45.5934 17.7704 45.0688 17.3332 44.4216 17.3332Z" fill="white"/>
<path d="M44.4216 22.5415H15.5786C14.9313 22.5415 14.4067 22.9787 14.4067 23.5181C14.4067 24.0574 14.9313 24.4946 15.5786 24.4946H44.4214C45.0687 24.4946 45.5934 24.0574 45.5934 23.5181C45.5934 22.9787 45.0688 22.5415 44.4216 22.5415Z" fill="white"/>
<path d="M44.4216 27.7498H15.5786C14.9313 27.7498 14.4067 28.1871 14.4067 28.7264C14.4067 29.2656 14.9313 29.7029 15.5786 29.7029H44.4214C45.0687 29.7029 45.5934 29.2656 45.5934 28.7264C45.5934 28.1871 45.0688 27.7498 44.4216 27.7498Z" fill="white"/>
<path d="M44.4214 32.9583H29.0474C28.4002 32.9583 27.8755 33.3956 27.8755 33.9348C27.8755 34.4741 28.4002 34.9114 29.0474 34.9114H44.4214C45.0687 34.9114 45.5933 34.4741 45.5933 33.9348C45.5933 33.3956 45.0687 32.9583 44.4214 32.9583Z" fill="white"/>
<path d="M22.4539 32.9581H22.4351C21.7879 32.9581 21.2632 33.3954 21.2632 33.9347C21.2632 34.474 21.7879 34.9113 22.4351 34.9113H22.4539C23.1012 34.9113 23.6258 34.474 23.6258 33.9347C23.6258 33.3954 23.1012 32.9581 22.4539 32.9581Z" fill="white"/>
</svg>
