<svg width="70" height="70" viewBox="0 0 70 70" fill="none" xmlns="http://www.w3.org/2000/svg">
<g clip-path="url(#clip0)">
<path d="M53.7104 0.250039C52.7636 -0.251446 51.6379 0.0202144 51.0241 0.894806L30.7271 28.3951L10.2747 1.00158C9.65633 0.130273 8.52922 -0.135235 7.58545 0.371035C6.63457 0.881134 6.23343 1.9794 6.63183 2.98223C6.64523 3.016 6.66013 3.04909 6.67668 3.08163L12.6527 14.768C12.9428 15.3352 13.6376 15.5596 14.2046 15.2697C14.7717 14.9797 14.9963 14.2849 14.7063 13.7178L9.95971 4.43542L43.1531 48.8937C43.3796 49.1971 43.7265 49.3572 44.0782 49.3572C44.3183 49.3572 44.5603 49.2825 44.7673 49.1279C45.2777 48.7469 45.3825 48.0242 45.0015 47.5137L37.3292 37.2376L54.633 2.95557C54.6492 2.92317 54.6641 2.88995 54.6774 2.85618C55.0706 1.85116 54.6639 0.755216 53.7104 0.250039ZM35.7873 35.1729L32.1685 30.326L51.3554 4.33014L35.7873 35.1729Z" fill="#907515"/>
<path d="M53.8149 56.4543C53.0504 55.3522 51.9022 54.614 50.5825 54.3753C49.2626 54.1365 47.9288 54.4263 46.8268 55.1911C44.5521 56.7697 43.9855 59.9045 45.5638 62.1792C46.5379 63.5832 48.1047 64.3364 49.6965 64.3364C50.6839 64.3364 51.681 64.0465 52.5518 63.4424C54.8268 61.864 55.3932 58.7293 53.8149 56.4543ZM51.2371 61.5475C50.0069 62.4009 48.3121 62.0945 47.459 60.8647C46.6056 59.6346 46.9119 57.9397 48.1418 57.0865C48.6016 56.7675 49.1357 56.6015 49.6837 56.6015C49.846 56.6015 50.0094 56.6161 50.1722 56.6455C50.8859 56.7746 51.5066 57.1735 51.9199 57.7695C52.7733 58.9993 52.4669 60.6942 51.2371 61.5475Z" fill="#907515"/>
<path d="M16.8733 58.497C16.6278 57.1783 15.8836 56.0343 14.7776 55.2754C13.6716 54.5167 12.3366 54.2338 11.0176 54.4794C9.69899 54.7249 8.55493 55.4691 7.796 56.5751C6.22961 58.8583 6.81258 61.9902 9.09592 63.5565C9.9418 64.1369 10.9219 64.4388 11.9261 64.4388C12.2347 64.4388 12.5459 64.4104 12.8558 64.3525C14.1745 64.107 15.3186 63.3628 16.0773 62.2568C16.8361 61.1508 17.1187 59.8156 16.8733 58.497ZM14.1752 60.9519C13.765 61.5499 13.1464 61.9523 12.4335 62.085C11.7207 62.2178 10.9986 62.0649 10.4008 61.6547C9.16647 60.8078 8.8512 59.1146 9.69803 57.8803C10.2234 57.1141 11.0751 56.7021 11.9405 56.7021C12.4696 56.7021 13.004 56.8561 13.4724 57.1775C14.0704 57.5878 14.4728 58.2065 14.6056 58.9193C14.7383 59.632 14.5856 60.354 14.1752 60.9519Z" fill="#907515"/>
<path d="M66.488 64.6586C65.889 63.8726 64.9775 63.3939 63.9867 63.3449C62.4596 63.2696 60.3257 63.053 58.2297 62.4758C58.4118 61.9803 58.5544 61.4665 58.6504 60.9365C59.0831 58.5428 58.5577 56.124 57.1709 54.1253C54.7718 50.6675 50.3516 49.3102 46.4223 50.824C45.828 51.053 45.5316 51.7205 45.7607 52.3148C45.9897 52.9093 46.6573 53.2051 47.2515 52.9764C50.1853 51.8459 53.485 52.8592 55.2759 55.4402C56.3112 56.9326 56.7036 58.7387 56.3806 60.5262C56.252 61.2377 56.0146 61.9113 55.683 62.5309C55.64 62.5934 55.6029 62.6606 55.5721 62.7328C55.078 63.5849 54.3987 64.3253 53.5654 64.9035C52.073 65.939 50.2669 66.3313 48.4795 66.0082C46.692 65.6851 45.1377 64.6854 44.1022 63.1931C42.3504 60.6685 42.5179 57.2676 44.5092 54.9227C44.8797 54.4865 44.8742 53.8444 44.4963 53.4147L31.9258 39.1172C31.692 38.8511 31.3496 38.708 30.9953 38.7273L30.6484 38.7467C30.4699 38.7146 30.2862 38.7248 30.1126 38.7766L27.5926 38.9175L16.8165 17.8439C16.5265 17.2767 15.8314 17.0523 15.2646 17.3421C14.6975 17.6321 14.4729 18.3269 14.7628 18.894L24.1667 37.2838L14.3148 50.6317C10.6055 49.6189 6.63946 51.0398 4.42736 54.264C1.58663 58.4046 2.64401 64.0843 6.78465 66.9252C8.35582 68.0032 10.1481 68.5199 11.9232 68.5197C14.8263 68.5196 17.6829 67.1375 19.4457 64.568C21.5832 61.4523 21.5501 57.3595 19.4554 54.2904L30.7559 41.2795L42.143 54.2314C40.0647 57.3112 40.0534 61.4039 42.2071 64.5081C43.5939 66.5065 45.6757 67.8456 48.0693 68.2783C48.6162 68.377 49.164 68.4259 49.7083 68.4259C51.2151 68.4259 52.6914 68.0508 54.0241 67.326C55.2299 68.3822 58.0216 69.9942 63.8365 70.0002C63.8376 70.0002 63.8388 70.0002 63.8399 70.0002C65.3847 70.0002 66.7498 68.9046 67.087 67.3906C67.3001 66.4335 67.0818 65.4379 66.488 64.6586ZM17.0977 53.4875C16.7227 53.9192 16.7208 54.5608 17.0935 54.9949C19.097 57.3294 19.2823 60.7292 17.5438 63.2631C15.4225 66.3548 11.1814 67.1446 8.08977 65.0233C4.99802 62.9021 4.20834 58.6608 6.32952 55.5691C8.10686 52.9786 11.4011 51.9484 14.3408 53.0632C14.8244 53.2464 15.3706 53.0856 15.6778 52.6697L25.3401 39.5784L25.8809 40.636C26.0887 41.0425 26.5168 41.2878 26.9721 41.2625L27.7535 41.2188L17.0977 53.4875ZM64.8348 66.8919C64.7313 67.3565 64.313 67.6933 63.8399 67.6933C63.8396 67.6933 63.8391 67.6933 63.8388 67.6933C59.3553 67.6886 57.0419 66.6397 55.9733 65.9085C56.4074 65.4965 56.7967 65.0456 57.138 64.5614C59.591 65.2982 62.1099 65.5615 63.8731 65.6486C64.1831 65.6639 64.4676 65.8125 64.6534 66.0565C64.7596 66.196 64.9245 66.4894 64.8348 66.8919Z" fill="#907515"/>
</g>
<defs>
<clipPath id="clip0">
<rect width="70" height="70" fill="white"/>
</clipPath>
</defs>
</svg>
