<svg width="54" height="44" viewBox="0 0 54 44" fill="none" xmlns="http://www.w3.org/2000/svg">
<g clip-path="url(#clip0)" filter="url(#filter0_f)">
<g clip-path="url(#clip1)">
<path d="M36.3761 25.8607C36.512 25.6769 36.5542 25.4757 36.4935 25.3014C36.4327 25.1272 36.274 24.9942 36.0521 24.9316L16.8151 19.5062C16.5933 19.4436 16.3265 19.4567 16.0736 19.5424C15.8206 19.6282 15.6022 19.7797 15.4663 19.9635C15.3304 20.1474 15.2882 20.3486 15.3489 20.5228C15.4097 20.6971 15.5684 20.8301 15.7903 20.8927L35.0273 26.3181C35.2491 26.3807 35.5159 26.3676 35.7688 26.2818C36.0218 26.1961 36.2402 26.0446 36.3761 25.8607ZM39.3828 20.4255L20.1458 15.0001C19.924 14.9375 19.6572 14.9505 19.4043 15.0363C19.1513 15.1221 18.9329 15.2736 18.797 15.4574C18.6611 15.6413 18.6189 15.8425 18.6796 16.0167C18.7404 16.191 18.8991 16.324 19.121 16.3866L38.358 21.812C38.5798 21.8745 38.8466 21.8615 39.0995 21.7757C39.3525 21.69 39.5709 21.5385 39.7068 21.3546C39.8427 21.1708 39.8849 20.9696 39.8242 20.7953C39.7634 20.6211 39.6047 20.488 39.3828 20.4255ZM28.4641 11.4859C30.0075 11.7704 31.4069 11.4907 32.6271 10.6536C30.0465 10.1519 27.5735 10.0996 25.7365 10.4653C26.2356 10.8164 26.8324 11.0865 27.5008 11.2645C27.8128 11.3517 28.1343 11.4256 28.4641 11.4859V11.4859ZM38.2332 14.2411C38.5231 14.3555 38.824 14.4571 39.135 14.5457C39.7905 14.7411 40.5118 14.8426 41.2683 14.8457C40.5125 13.7487 38.827 12.6241 36.5205 11.7516C36.2957 12.8694 36.8743 13.707 38.2332 14.2411V14.2411Z" fill="black" fill-opacity="0.25"/>
<path d="M48.2787 11.6246C46.8223 11.6327 45.396 12.906 45.396 12.906C45.396 12.906 43.5423 12.8021 43.0298 13.4953C42.5174 14.1886 43.8587 14.9858 43.8587 14.9858C43.159 15.3226 42.3866 15.5205 41.633 15.556C40.1617 15.6366 38.7791 15.4118 37.6357 14.9062C36.901 14.637 36.3095 14.2184 35.9136 13.6875C35.4687 13.0405 35.3742 12.247 35.6458 11.438C35.7627 11.0566 35.9492 10.6777 36.1998 10.3124C36.1998 10.3124 38.455 10.5296 38.9674 9.83633C39.4798 9.14308 38.1385 8.34591 38.1385 8.34591C38.1385 8.34591 39.1634 6.95941 38.2194 6.27429C36.7629 6.28242 35.7381 7.66891 35.7381 7.66891C35.7381 7.66891 33.8844 7.56499 33.372 8.25824C32.8595 8.95149 34.6023 9.86188 34.6023 9.86188C34.3196 10.2181 33.9782 10.5534 33.5883 10.8577C32.526 11.6932 30.6492 12.6803 28.0423 12.2006C26.6748 11.998 25.4943 11.4999 24.6291 10.7605C24.1791 10.3854 23.9152 9.89525 23.8689 9.34805C23.8689 9.34805 25.7226 9.45197 26.2351 8.75872C26.7475 8.06547 25.4062 7.2683 25.4062 7.2683C25.4062 7.2683 26.0295 5.76858 25.0855 5.08346C24.7628 4.85002 24.4158 5.14171 24.2076 5.40972C23.6392 6.19924 23.1787 7.01486 22.8346 7.84158C22.2404 9.08983 21.7105 10.3449 21.2441 11.607C20.9036 12.4947 20.6385 13.3855 20.4506 14.2735C20.5236 14.2773 20.5936 14.2887 20.6584 14.3069L39.8954 19.7323C39.9603 19.7506 40.02 19.7758 40.0724 19.8074C41.0357 19.138 41.9517 18.4309 42.8147 17.6905C44.0542 16.6494 45.2424 15.58 46.3791 14.4818C47.165 13.7797 47.8611 13.0305 48.4546 12.2481C48.6461 11.9754 48.7756 11.6223 48.2787 11.6246V11.6246ZM18.6087 17.0799L17.3277 18.8131L36.5647 24.2385L37.8458 22.5053L18.6087 17.0799ZM20.6394 19.1187C20.6119 19.1109 20.588 19.0987 20.5691 19.0828C20.5502 19.0668 20.5366 19.0475 20.5291 19.0259C20.5217 19.0042 20.5204 18.9807 20.5255 18.9567C20.5306 18.9326 20.542 18.9085 20.5589 18.8857C20.5758 18.863 20.598 18.8419 20.6241 18.8239C20.6502 18.8058 20.6799 18.791 20.7112 18.7804C20.7426 18.7698 20.7752 18.7636 20.807 18.7621C20.8389 18.7606 20.8695 18.7638 20.8969 18.7716C20.9524 18.7874 20.9921 18.8208 21.0072 18.8645C21.0223 18.9082 21.0116 18.9586 20.9774 19.0046C20.9433 19.0506 20.8885 19.0885 20.8251 19.1099C20.7617 19.1313 20.6949 19.1345 20.6394 19.1187ZM23.985 20.0623C23.9575 20.0545 23.9336 20.0422 23.9147 20.0263C23.8958 20.0104 23.8822 19.991 23.8747 19.9694C23.8672 19.9478 23.866 19.9243 23.8711 19.9002C23.8762 19.8762 23.8876 19.8521 23.9045 19.8293C23.9214 19.8065 23.9435 19.7855 23.9697 19.7674C23.9958 19.7493 24.0254 19.7346 24.0568 19.724C24.0882 19.7134 24.1208 19.7072 24.1526 19.7057C24.1845 19.7041 24.215 19.7074 24.2425 19.7152C24.298 19.731 24.3377 19.7644 24.3528 19.808C24.3679 19.8517 24.3571 19.9021 24.323 19.9482C24.2888 19.9942 24.234 20.0321 24.1706 20.0535C24.1072 20.0749 24.0405 20.078 23.985 20.0623ZM27.3305 21.0058C27.303 20.998 27.2792 20.9858 27.2602 20.9699C27.2413 20.9539 27.2277 20.9346 27.2203 20.913C27.2128 20.8913 27.2116 20.8678 27.2167 20.8438C27.2218 20.8197 27.2331 20.7956 27.25 20.7728C27.267 20.7501 27.2891 20.729 27.3153 20.711C27.3414 20.6929 27.371 20.6781 27.4024 20.6675C27.4338 20.6569 27.4663 20.6507 27.4982 20.6492C27.5301 20.6477 27.5606 20.6509 27.5881 20.6587C27.6436 20.6745 27.6832 20.7079 27.6983 20.7516C27.7134 20.7953 27.7027 20.8457 27.6686 20.8917C27.6344 20.9377 27.5796 20.9756 27.5162 20.997C27.4528 21.0184 27.386 21.0216 27.3305 21.0058ZM30.6761 21.9494C30.6237 21.9322 30.587 21.8987 30.5736 21.8558C30.5602 21.813 30.5711 21.7641 30.6042 21.7194C30.6372 21.6747 30.6898 21.6376 30.751 21.6158C30.8122 21.594 30.8772 21.5892 30.9326 21.6024C30.9828 21.6207 31.0174 21.6543 31.0296 21.6966C31.0417 21.7389 31.0304 21.7867 30.9981 21.8305C30.9657 21.8743 30.9145 21.9109 30.8548 21.933C30.7951 21.955 30.7313 21.9609 30.6761 21.9494V21.9494ZM34.0217 22.8929C33.9693 22.8757 33.9325 22.8422 33.9191 22.7994C33.9057 22.7566 33.9167 22.7077 33.9497 22.663C33.9828 22.6183 34.0354 22.5811 34.0966 22.5593C34.1577 22.5375 34.2228 22.5327 34.2781 22.5459C34.3284 22.5642 34.363 22.5978 34.3751 22.6401C34.3873 22.6824 34.376 22.7302 34.3436 22.7741C34.3112 22.8179 34.2601 22.8545 34.2004 22.8765C34.1407 22.8985 34.0769 22.9044 34.0217 22.8929V22.8929Z" fill="black" fill-opacity="0.25"/>
</g>
<path d="M12.9932 40.2437L13.7194 22.2271L34.5572 28.1039L12.9932 40.2437Z" fill="black" fill-opacity="0.25"/>
</g>
<defs>
<filter id="filter0_f" x="-2" y="0" width="55.5456" height="45.9081" filterUnits="userSpaceOnUse" color-interpolation-filters="sRGB">
<feFlood flood-opacity="0" result="BackgroundImageFix"/>
<feBlend mode="normal" in="SourceGraphic" in2="BackgroundImageFix" result="shape"/>
<feGaussianBlur stdDeviation="1" result="effect1_foregroundBlur"/>
</filter>
<clipPath id="clip0">
<rect width="27" height="43" fill="white" transform="matrix(0.962455 0.27144 -0.594402 0.804168 25.5593 2)"/>
</clipPath>
<clipPath id="clip1">
<rect width="25.2016" height="25" fill="white" transform="matrix(0.962455 0.27144 -0.594402 0.804168 27.1162 1.46729)"/>
</clipPath>
</defs>
</svg>
