<svg width="25" height="25" viewBox="0 0 25 25" fill="none" xmlns="http://www.w3.org/2000/svg">
<g clip-path="url(#clip0)">
<path d="M11.1337 22.9924C11.1337 21.8854 10.236 20.988 9.12885 20.988H4.00962V4.01434H9.12885C10.236 4.01434 11.1337 3.11677 11.1337 2.00947C11.1337 0.902388 10.236 0.00482178 9.12885 0.00482178H2.00481C0.897692 0.00504302 0 0.902609 0 2.00969V22.9924C0 24.0997 0.897692 24.9973 2.00481 24.9973H9.12885C10.236 24.9973 11.1337 24.0997 11.1337 22.9924Z" fill="white"/>
<path d="M17.7638 16.7425L15.526 14.5046H22.9952C24.1023 14.5046 25 13.6071 25 12.5C25 11.3929 24.1023 10.4951 22.9952 10.4951H15.526L17.7635 8.25774C18.155 7.86615 18.3508 7.3531 18.3508 6.84004C18.3508 6.32699 18.155 5.81394 17.7635 5.42257C16.9808 4.6396 15.7113 4.6396 14.9285 5.42257L9.26864 11.0825C8.48557 11.8653 8.48557 13.1347 9.26864 13.9175L14.9286 19.5777C15.7115 20.3604 16.9808 20.3604 17.7638 19.5777C18.5465 18.7947 18.5465 17.5254 17.7638 16.7425Z" fill="white"/>
</g>
<defs>
<clipPath id="clip0">
<rect width="25" height="25" fill="white"/>
</clipPath>
</defs>
</svg>
