<svg width="25" height="25" viewBox="0 0 25 25" fill="none" xmlns="http://www.w3.org/2000/svg">
<path d="M22.9914 13.8664C21.8843 13.8664 20.9867 14.764 20.9867 15.8711V20.9905H4.01333V15.8711C4.01333 14.764 3.11575 13.8664 2.0086 13.8664C0.901459 13.8664 0.00387573 14.764 0.00387573 15.8711V22.9952C0.00387573 24.1023 0.901459 24.9999 2.0086 24.9999H22.9914C24.0986 24.9999 24.9961 24.1023 24.9961 22.9952V15.8711C24.9961 14.764 24.0986 13.8664 22.9914 13.8664Z" fill="white"/>
<path d="M8.25747 9.08241L10.4953 6.8446V14.3139C10.4953 15.421 11.3929 16.3186 12.5 16.3186C13.6071 16.3186 14.5047 15.421 14.5047 14.3139V6.84453L16.7425 9.08234C17.1339 9.4738 17.647 9.66953 18.1601 9.66953C18.6731 9.66953 19.1862 9.4738 19.5776 9.08234C20.3605 8.29943 20.3605 7.03017 19.5776 6.24726L13.9175 0.58725C13.1347 -0.19573 11.8653 -0.19573 11.0825 0.58725L5.42239 6.24733C4.63948 7.03024 4.63948 8.2995 5.42239 9.08241C6.20523 9.86532 7.47462 9.86532 8.25747 9.08241Z" fill="white"/>
</svg>
