<svg width="57" height="37" viewBox="0 0 57 37" fill="none" xmlns="http://www.w3.org/2000/svg">
<path d="M50.2891 25.0319L50.2585 25.0005C49.7763 24.5099 48.2992 22.9254 47.8011 22.2328C47.2164 21.3689 47.3512 20.8027 47.7895 19.9544C48.3432 18.8823 49.4527 17.238 50.6269 15.4967C54.3878 9.9214 56.8159 6.06172 56.3161 3.32015L56.0468 1.85579L42.1576 1.86244C42.1089 2.00683 41.3841 5.51645 38.3256 11.4926C36.1078 15.8259 34.6531 17.1871 34.1407 17.4275L34.0614 17.4009C33.8947 17.1738 33.6034 16.5611 33.4836 14.9818C33.3587 13.3275 33.4694 11.3245 33.5767 9.38752C33.7021 7.11617 33.8102 5.15451 33.5513 3.75095L33.1294 1.4644C32.6197 1.37463 30.7534 0.580944 25.5538 0.520622C21.0522 0.469799 19.7298 1.18654 19.0804 1.81826L16.9324 3.90769L19.6474 4.91465C20.6807 5.29796 21.0237 5.74016 21.3051 7.93219C21.4887 9.36092 21.5848 11.7619 21.3866 13.9055C21.1017 16.9791 20.4188 17.551 20.3834 17.5814C20.2658 17.5372 19.2683 17.056 17.5365 13.0202C16.3351 10.2211 15.282 6.91003 14.5124 4.49239C13.6317 1.72374 13.7902 2.31319 13.3434 1.0051L-0.09375 1.00463L0.775804 3.48401C4.40096 13.8305 7.72706 21.9103 12.1782 27.7136C17.0961 34.1254 23.208 37.4825 31.4407 37.4825H33.0954V35.6586C33.0954 33.9534 33.2234 32.7256 33.4978 31.7946C33.6655 31.2275 33.8882 30.7587 34.1222 30.2671C34.4695 29.5432 34.8091 29.2331 34.9943 29.187C35.1624 29.1447 35.458 29.2806 35.7855 29.5499C36.7257 30.3227 37.472 31.3382 38.2623 32.4135C39.4024 33.9653 40.5814 35.5693 42.4519 36.6195C43.474 37.1932 45.3476 37.483 46.3787 37.483C46.6515 37.483 56.373 37.4825 56.385 37.4825L56.3139 35.5835C56.2079 32.7441 54.1805 29.1936 50.2891 25.0319ZM46.4429 33.8347H46.4162C45.7052 33.8475 44.3483 33.5905 43.9536 33.3692C42.71 32.671 41.8409 31.4878 40.8339 30.118C39.9501 28.9148 39.0362 27.6709 37.7637 26.6254C36.7347 25.7795 35.8001 25.532 35.0581 25.532C34.7617 25.532 34.4954 25.5715 34.267 25.6285C33.4056 25.8422 32.1737 26.5252 31.1942 28.5672C30.918 29.1481 30.6048 29.8059 30.351 30.6666C30.0851 31.5671 29.9196 32.5679 29.8408 33.7853C23.6367 33.3967 18.7956 30.6913 14.7055 25.3587C10.9028 20.4004 7.91106 13.4652 4.74266 4.65104C4.9719 4.65104 10.7162 4.65199 11.0553 4.65199C11.1592 4.97355 11.2712 5.32598 11.3901 5.69931C12.2196 8.30742 13.3559 11.8788 14.6947 14.9243C16.6118 19.2856 18.3625 21.2306 20.3709 21.2306C21.3736 21.2306 22.2729 20.7623 22.9714 19.8755C23.9672 18.6116 24.5455 16.5255 24.7394 13.4975C24.8924 11.1098 24.7502 8.73158 24.5821 7.42111C24.4434 6.34291 24.2456 5.21104 23.763 4.19696C25.8196 4.09484 28.5735 4.25633 30.3182 4.53229C30.4768 5.48415 30.3734 7.35509 30.2734 9.16523C30.0317 13.5379 29.7822 18.0502 31.882 20.1615C32.2512 20.5329 32.6429 20.7319 32.6541 20.74L33.7228 21.1014C34.1351 20.9613 36.5236 22.297 41.0463 13.5968C42.4954 10.8091 43.8446 7.59685 44.5711 5.49887C46.2559 5.49507 51.9959 5.5022 52.6702 5.50315C51.7149 7.82057 49.451 11.1259 47.9713 13.3199C46.6812 15.2321 45.5673 16.8836 44.9136 18.149C43.6994 20.4996 43.9036 22.5948 45.1683 24.4429L45.1881 24.4714C45.8939 25.4617 47.6369 27.2952 47.9984 27.6647C50.6174 30.4675 51.8795 32.481 52.4802 33.8342L46.4429 33.8347Z" fill="#4F7DB3"/>
</svg>
