<svg width="70" height="70" viewBox="0 0 70 70" fill="none" xmlns="http://www.w3.org/2000/svg">
<g clip-path="url(#clip0)">
<path d="M48.4165 51.3211V18.6789C50.1949 18.6246 51.6254 17.162 51.6254 15.3706C51.6254 13.7051 50.389 12.3234 48.7862 12.0937C47.8933 5.24098 42.0096 0 35 0C32.1236 0 29.3632 0.870899 27.0174 2.51863C26.5531 2.84471 26.441 3.48551 26.7672 3.9498C27.0934 4.4141 27.7342 4.52621 28.1984 4.2C30.1967 2.79658 32.5486 2.05475 35 2.05475C40.8708 2.05475 45.8143 6.36822 46.705 12.0596H23.2956C23.5907 10.1737 24.3355 8.38852 25.4829 6.84441C25.8212 6.389 25.7264 5.74533 25.271 5.40695C24.8155 5.06857 24.172 5.16332 23.8335 5.61887C22.4153 7.52746 21.5197 9.74969 21.2142 12.0937C19.6111 12.3233 18.3747 13.705 18.3747 15.3706C18.3747 17.162 19.8051 18.6246 21.5837 18.6789V51.3211C19.8052 51.3754 18.3747 52.838 18.3747 54.6294C18.3747 56.2949 19.6111 57.6764 21.214 57.9063C22.1067 64.759 27.9904 70 35 70C42.0096 70 47.8932 64.759 48.786 57.9063C50.3889 57.6766 51.6253 56.2949 51.6253 54.6294C51.6253 52.8381 50.1949 51.3754 48.4165 51.3211ZM34.3041 45.6066C33.903 45.2054 33.2523 45.2054 32.8512 45.6066L27.1394 51.3185H23.6385V47.8119L46.3617 25.0886V32.096L35.7571 42.7005C35.3831 43.0746 35.3582 43.6924 35.7026 44.0945C36.0868 44.5432 36.7922 44.5714 37.2101 44.1535L46.3617 35.0018V42.0092L37.0526 51.3182H30.0452L34.3041 47.0593C34.7052 46.6583 34.7052 46.0078 34.3041 45.6066ZM30.0364 18.6815L23.6384 25.0795V18.6815H30.0364ZM35.7236 24.3605C36.1194 24.7563 36.7808 24.7563 37.1766 24.3605L42.8556 18.6815H46.3617V22.1829L23.6384 44.9061V37.8987L34.2707 27.2665C34.672 26.8654 34.672 26.2147 34.2707 25.8136C33.8696 25.4122 33.2191 25.4123 32.8178 25.8136L23.6385 34.9929V27.9855L32.9424 18.6817H39.9498L35.7238 22.9078C35.3224 23.3088 35.3224 23.9593 35.7236 24.3605ZM46.3616 44.9153V51.3185H39.9582L46.3616 44.9153ZM20.4295 15.3706C20.4295 14.6779 20.993 14.1144 21.6856 14.1144H48.3143C49.007 14.1144 49.5705 14.678 49.5705 15.3706C49.5705 16.0632 49.007 16.6268 48.3143 16.6268H21.6856C20.993 16.6268 20.4295 16.0632 20.4295 15.3706ZM35 67.9453C29.1292 67.9453 24.1857 63.6316 23.295 57.9404H46.705C45.8143 63.6316 40.8708 67.9453 35 67.9453ZM48.3143 55.8857H21.6856C20.993 55.8857 20.4295 55.3221 20.4295 54.6295C20.4295 53.9369 20.993 53.3734 21.6856 53.3734H48.3143C49.007 53.3734 49.5705 53.9369 49.5705 54.6295C49.5705 55.3221 49.007 55.8857 48.3143 55.8857Z" fill="#907515"/>
</g>
<defs>
<clipPath id="clip0">
<rect width="70" height="70" fill="white"/>
</clipPath>
</defs>
</svg>
