<svg width="50" height="50" viewBox="0 0 50 50" fill="none" xmlns="http://www.w3.org/2000/svg">
<path d="M21.0156 16.6515L17.1492 12.7844C17.0027 12.6379 16.804 12.5556 16.5969 12.5556C16.3897 12.5556 16.191 12.6379 16.0445 12.7844L14.3867 14.4414C14.1691 14.6591 13.9107 14.8317 13.6263 14.9495C13.3419 15.0674 13.0371 15.128 12.7293 15.128C12.4215 15.128 12.1167 15.0674 11.8323 14.9495C11.5479 14.8317 11.2895 14.6591 11.0719 14.4414L10.8828 14.2523C10.6651 14.0347 10.4925 13.7763 10.3747 13.4919C10.2568 13.2075 10.1962 12.9027 10.1962 12.5949C10.1962 12.2871 10.2568 11.9823 10.3747 11.6979C10.4925 11.4135 10.6651 11.1551 10.8828 10.9375L12.5398 9.27967C12.6863 9.13316 12.7686 8.93448 12.7686 8.72732C12.7686 8.52016 12.6863 8.32149 12.5398 8.17498L8.67188 4.30857C8.52537 4.16211 8.32669 4.07983 8.11953 4.07983C7.91237 4.07983 7.71369 4.16211 7.56719 4.30857L5.91016 5.9656C4.59343 7.28524 3.85395 9.07329 3.85395 10.9375C3.85395 12.8017 4.59343 14.5897 5.91016 15.9094L9.41406 19.4133C10.7337 20.73 12.5218 21.4695 14.3859 21.4695C16.2501 21.4695 18.0382 20.73 19.3578 19.4133L21.0156 17.7562C21.1621 17.6097 21.2444 17.411 21.2444 17.2039C21.2444 16.9967 21.1621 16.798 21.0156 16.6515ZM16.5969 14.4414L19.3586 17.2039L18.8063 17.7562L16.0445 14.9937L16.5969 14.4414ZM8.12031 5.9656L10.882 8.72732L10.3297 9.28045L7.56719 6.51795L8.12031 5.9656ZM10.5188 18.3094L7.01484 14.8047C6.08657 13.8738 5.52397 12.6402 5.42974 11.329C5.33551 10.0178 5.71593 8.71648 6.50156 7.66248L9.27969 10.4406C8.78455 11.1923 8.5637 12.0917 8.65435 12.9873C8.745 13.8828 9.14161 14.7198 9.77735 15.357L9.96641 15.5461C10.6039 16.1814 11.4408 16.5778 12.3362 16.6684C13.2316 16.759 14.131 16.5384 14.8828 16.0437L17.6609 18.8219C16.6069 19.6073 15.3055 19.9877 13.9944 19.8934C12.6832 19.7992 11.4497 19.2367 10.5188 18.3086V18.3094Z" fill="white"/>
<path d="M21.0938 25H3.90625C3.28465 25 2.68851 24.7531 2.24897 24.3135C1.80943 23.874 1.5625 23.2779 1.5625 22.6562V3.90625C1.5625 3.28465 1.80943 2.68851 2.24897 2.24897C2.68851 1.80943 3.28465 1.5625 3.90625 1.5625H21.0938C21.7154 1.5625 22.3115 1.80943 22.751 2.24897C23.1906 2.68851 23.4375 3.28465 23.4375 3.90625V22.6562C23.4375 23.2779 23.1906 23.874 22.751 24.3135C22.3115 24.7531 21.7154 25 21.0938 25ZM3.90625 3.125C3.69905 3.125 3.50034 3.20731 3.35382 3.35382C3.20731 3.50034 3.125 3.69905 3.125 3.90625V22.6562C3.125 22.8635 3.20731 23.0622 3.35382 23.2087C3.50034 23.3552 3.69905 23.4375 3.90625 23.4375H21.0938C21.301 23.4375 21.4997 23.3552 21.6462 23.2087C21.7927 23.0622 21.875 22.8635 21.875 22.6562V3.90625C21.875 3.69905 21.7927 3.50034 21.6462 3.35382C21.4997 3.20731 21.301 3.125 21.0938 3.125H3.90625Z" fill="white"/>
<path d="M21.0938 48.4375H3.90625C3.28465 48.4375 2.68851 48.1906 2.24897 47.751C1.80943 47.3115 1.5625 46.7154 1.5625 46.0938V28.9062C1.5625 28.2846 1.80943 27.6885 2.24897 27.249C2.68851 26.8094 3.28465 26.5625 3.90625 26.5625H21.0938C21.7154 26.5625 22.3115 26.8094 22.751 27.249C23.1906 27.6885 23.4375 28.2846 23.4375 28.9062V46.0938C23.4375 46.7154 23.1906 47.3115 22.751 47.751C22.3115 48.1906 21.7154 48.4375 21.0938 48.4375ZM3.90625 28.125C3.69905 28.125 3.50034 28.2073 3.35382 28.3538C3.20731 28.5003 3.125 28.699 3.125 28.9062V46.0938C3.125 46.301 3.20731 46.4997 3.35382 46.6462C3.50034 46.7927 3.69905 46.875 3.90625 46.875H21.0938C21.301 46.875 21.4997 46.7927 21.6462 46.6462C21.7927 46.4997 21.875 46.301 21.875 46.0938V28.9062C21.875 28.699 21.7927 28.5003 21.6462 28.3538C21.4997 28.2073 21.301 28.125 21.0938 28.125H3.90625Z" fill="white"/>
<path d="M19.5312 32.0312H5.46875C5.26155 32.0312 5.06284 32.1136 4.91632 32.2601C4.76981 32.4066 4.6875 32.6053 4.6875 32.8125V42.1875C4.6875 42.3947 4.76981 42.5934 4.91632 42.7399C5.06284 42.8864 5.26155 42.9688 5.46875 42.9688H19.5312C19.7385 42.9688 19.9372 42.8864 20.0837 42.7399C20.2302 42.5934 20.3125 42.3947 20.3125 42.1875V32.8125C20.3125 32.6053 20.2302 32.4066 20.0837 32.2601C19.9372 32.1136 19.7385 32.0312 19.5312 32.0312ZM12.5 38.0078L7.525 33.5938H17.4734L12.5 38.0078ZM9.58281 37.507L6.25 40.4531V34.5508L9.58281 37.507ZM10.7594 38.5516L11.4625 39.1766C11.7481 39.4354 12.1196 39.5791 12.5051 39.5798C12.8906 39.5805 13.2626 39.4382 13.5492 39.1805L14.2523 38.5555L17.4695 41.4062H7.53047L10.7594 38.5516ZM15.425 37.507L18.75 34.5508V40.4531L15.425 37.507Z" fill="white"/>
<path d="M46.0938 1.5625H28.9062C28.2846 1.5625 27.6885 1.80943 27.249 2.24897C26.8094 2.68851 26.5625 3.28465 26.5625 3.90625V22.6562C26.5625 23.2779 26.8094 23.874 27.249 24.3135C27.6885 24.7531 28.2846 25 28.9062 25H32.8125V34.7953L31.8984 32.8586C31.7294 32.2869 31.3463 31.8024 30.8289 31.5062C30.2894 31.195 29.6485 31.1107 29.0469 31.2719L28.3273 31.4656C28.122 31.521 27.9302 31.6176 27.7635 31.7497C27.5969 31.8818 27.459 32.0465 27.3582 32.2337C27.2574 32.4209 27.1959 32.6268 27.1774 32.8386C27.159 33.0504 27.1839 33.2638 27.2508 33.4656L30.5117 42.9375C30.543 43.029 30.5913 43.1138 30.6539 43.1875L32.7703 45.6875L32.8125 47.6727C32.8168 47.877 32.901 48.0715 33.047 48.2145C33.1931 48.3575 33.3894 48.4375 33.5938 48.4375H44.5312C44.7385 48.4375 44.9372 48.3552 45.0837 48.2087C45.2302 48.0622 45.3125 47.8634 45.3125 47.6562V45.5469L46.7438 43.4C46.8287 43.2721 46.8743 43.1222 46.875 42.9688V32.8125C46.8773 32.5063 46.8181 32.2027 46.7008 31.9198C46.5835 31.6368 46.4105 31.3804 46.1922 31.1656C45.8666 30.8447 45.4558 30.6239 45.0085 30.5295C44.5613 30.435 44.0963 30.4709 43.6688 30.6328C43.565 30.2415 43.3571 29.8857 43.0672 29.6031C42.7415 29.2824 42.3307 29.0617 41.8835 28.9672C41.4362 28.8728 40.9713 28.9086 40.5437 29.0703C40.44 28.679 40.2321 28.3232 39.9422 28.0406C39.6275 27.7294 39.2324 27.5118 38.801 27.4124C38.3697 27.3129 37.9192 27.3354 37.5 27.4773V25H46.0938C46.7154 25 47.3115 24.7531 47.751 24.3135C48.1906 23.874 48.4375 23.2779 48.4375 22.6562V3.90625C48.4375 3.28465 48.1906 2.68851 47.751 2.24897C47.3115 1.80943 46.7154 1.5625 46.0938 1.5625ZM38.2812 28.9062C38.3854 28.9059 38.4885 28.927 38.5842 28.9681C38.6799 29.0092 38.7661 29.0695 38.8375 29.1453C38.9096 29.2158 38.9668 29.3002 39.0054 29.3934C39.0441 29.4866 39.0635 29.5866 39.0625 29.6875V35.1562C39.0625 35.3634 39.1448 35.5622 39.2913 35.7087C39.4378 35.8552 39.6365 35.9375 39.8438 35.9375C40.051 35.9375 40.2497 35.8552 40.3962 35.7087C40.5427 35.5622 40.625 35.3634 40.625 35.1562V31.25C40.625 31.0428 40.7073 30.8441 40.8538 30.6976C41.0003 30.5511 41.199 30.4688 41.4062 30.4688C41.5104 30.4684 41.6135 30.4895 41.7092 30.5306C41.8049 30.5717 41.8911 30.632 41.9625 30.7078C42.0346 30.7783 42.0918 30.8627 42.1304 30.9559C42.1691 31.0491 42.1885 31.1491 42.1875 31.25V35.1562C42.1875 35.3634 42.2698 35.5622 42.4163 35.7087C42.5628 35.8552 42.7615 35.9375 42.9688 35.9375C43.176 35.9375 43.3747 35.8552 43.5212 35.7087C43.6677 35.5622 43.75 35.3634 43.75 35.1562V32.8125C43.75 32.6053 43.8323 32.4066 43.9788 32.2601C44.1253 32.1136 44.324 32.0312 44.5312 32.0312C44.6354 32.0309 44.7385 32.052 44.8342 32.0931C44.9299 32.1342 45.0161 32.1945 45.0875 32.2703C45.1596 32.3408 45.2168 32.4252 45.2554 32.5184C45.2941 32.6116 45.3135 32.7116 45.3125 32.8125V42.7344L43.8812 44.8813C43.7963 45.0091 43.7507 45.159 43.75 45.3125V46.875H34.3586L34.3266 45.3742C34.3231 45.1949 34.258 45.0222 34.1422 44.8852L31.9406 42.2867L28.7336 32.9688L29.4477 32.7766C29.6501 32.7225 29.8658 32.7506 30.0477 32.8547C30.1359 32.905 30.2133 32.9723 30.2752 33.0528C30.3372 33.1333 30.3825 33.2253 30.4086 33.3234C30.4203 33.3695 32.8875 38.607 32.8875 38.607C32.9631 38.7668 33.0906 38.8963 33.2492 38.9743C33.4079 39.0522 33.5883 39.0741 33.7609 39.0363C33.9336 38.9985 34.0884 38.9032 34.1999 38.7661C34.3114 38.6289 34.3732 38.458 34.375 38.2812V22.7437C34.3666 22.5374 34.434 22.3351 34.5646 22.175C34.6951 22.015 34.8797 21.9082 35.0836 21.875C35.1994 21.8634 35.3163 21.8785 35.4253 21.9191C35.5343 21.9597 35.6326 22.0248 35.7125 22.1094C35.7852 22.1804 35.8427 22.2656 35.8814 22.3596C35.9201 22.4537 35.9392 22.5546 35.9375 22.6562V35.1562C35.9375 35.3634 36.0198 35.5622 36.1663 35.7087C36.3128 35.8552 36.5115 35.9375 36.7188 35.9375C36.926 35.9375 37.1247 35.8552 37.2712 35.7087C37.4177 35.5622 37.5 35.3634 37.5 35.1562V29.6875C37.5 29.4803 37.5823 29.2816 37.7288 29.1351C37.8753 28.9886 38.074 28.9062 38.2812 28.9062ZM46.875 22.6562C46.875 22.8635 46.7927 23.0622 46.6462 23.2087C46.4997 23.3552 46.301 23.4375 46.0938 23.4375H37.5V22.6562C37.5023 22.35 37.4431 22.0464 37.3258 21.7635C37.2085 21.4806 37.0355 21.2241 36.8172 21.0094C36.5769 20.7635 36.2849 20.5742 35.9623 20.4551C35.6398 20.3361 35.2948 20.2903 34.9523 20.3211C34.3583 20.3867 33.8101 20.6712 33.4145 21.1191C33.0188 21.567 32.8042 22.1462 32.8125 22.7437V23.4375H28.9062C28.699 23.4375 28.5003 23.3552 28.3538 23.2087C28.2073 23.0622 28.125 22.8635 28.125 22.6562V3.90625C28.125 3.69905 28.2073 3.50034 28.3538 3.35382C28.5003 3.20731 28.699 3.125 28.9062 3.125H46.0938C46.301 3.125 46.4997 3.20731 46.6462 3.35382C46.7927 3.50034 46.875 3.69905 46.875 3.90625V22.6562Z" fill="white"/>
<path d="M37.5 6.25C35.8424 6.25 34.2527 6.90848 33.0806 8.08058C31.9085 9.25268 31.25 10.8424 31.25 12.5C31.25 14.1576 31.9085 15.7473 33.0806 16.9194C34.2527 18.0915 35.8424 18.75 37.5 18.75H40.625C40.8322 18.75 41.0309 18.6677 41.1774 18.5212C41.3239 18.3747 41.4062 18.176 41.4062 17.9688C41.4062 17.7615 41.3239 17.5628 41.1774 17.4163C41.0309 17.2698 40.8322 17.1875 40.625 17.1875H37.5C36.5729 17.1875 35.6666 16.9126 34.8958 16.3975C34.1249 15.8824 33.5241 15.1504 33.1693 14.2938C32.8145 13.4373 32.7217 12.4948 32.9026 11.5855C33.0834 10.6762 33.5299 9.841 34.1854 9.18544C34.841 8.52988 35.6762 8.08344 36.5855 7.90257C37.4948 7.7217 38.4373 7.81453 39.2938 8.16931C40.1503 8.5241 40.8824 9.12491 41.3975 9.89576C41.9126 10.6666 42.1875 11.5729 42.1875 12.5V13.2812C42.1875 13.4885 42.1052 13.6872 41.9587 13.8337C41.8122 13.9802 41.6134 14.0625 41.4062 14.0625C41.199 14.0625 41.0003 13.9802 40.8538 13.8337C40.7073 13.6872 40.625 13.4885 40.625 13.2812V12.5C40.6309 11.7749 40.3865 11.0699 39.933 10.504C39.4796 9.93809 38.8448 9.54594 38.1358 9.3937C37.4268 9.24147 36.6869 9.33845 36.0411 9.66831C35.3953 9.99816 34.8831 10.5407 34.5908 11.2043C34.2985 11.868 34.2441 12.6122 34.4367 13.3113C34.6294 14.0104 35.0573 14.6216 35.6482 15.0419C36.2392 15.4622 36.957 15.6658 37.6807 15.6183C38.4043 15.5708 39.0893 15.2752 39.6203 14.7812C39.9273 15.1514 40.3412 15.4176 40.8053 15.5436C41.2694 15.6695 41.7611 15.649 42.2131 15.4848C42.6651 15.3206 43.0553 15.0208 43.3305 14.6264C43.6056 14.2319 43.7521 13.7621 43.75 13.2812V12.5C43.7481 10.843 43.089 9.25434 41.9174 8.08264C40.7457 6.91094 39.157 6.25186 37.5 6.25ZM37.5 14.0625C37.191 14.0625 36.8889 13.9709 36.6319 13.7992C36.375 13.6275 36.1747 13.3835 36.0564 13.0979C35.9382 12.8124 35.9072 12.4983 35.9675 12.1952C36.0278 11.8921 36.1766 11.6137 36.3951 11.3951C36.6137 11.1766 36.8921 11.0278 37.1952 10.9675C37.4983 10.9072 37.8124 10.9382 38.0979 11.0564C38.3834 11.1747 38.6275 11.375 38.7992 11.6319C38.9709 11.8889 39.0625 12.191 39.0625 12.5C39.0625 12.9144 38.8979 13.3118 38.6048 13.6049C38.3118 13.8979 37.9144 14.0625 37.5 14.0625Z" fill="white"/>
</svg>
