<svg width="90" height="30" fill="none" xmlns="http://www.w3.org/2000/svg"><path d="M41.9.946l1.439.904-2.467.124c-3.207.123-4.03.452-2.672.986l1.027.37-1.233.905c-1.974 1.398-3.495 3.166-4.646 5.386-.905 1.727-1.07 2.673-1.11 5.386 0 2.92.164 3.618 1.357 6.044 2.631 5.386 7.36 8.306 13.444 8.265 4.03 0 6.99-1.07 9.786-3.454 2.22-1.891 2.343-2.508.247-1.234-1.892 1.152-2.262 1.11-3.084-.616-.905-1.85-2.59-3.125-5.838-4.276-4.235-1.522-5.551-3.947-3.783-6.908.904-1.439 1.645-1.727 1.645-.575 0 1.315 1.85 2.59 4.81 3.33 3.125.822 4.687 1.686 5.797 3.207.535.74 1.234 1.069 2.632 1.233 1.85.206 1.891.206 2.302-1.15 1.028-3.208.781-4.277-1.192-5.552-2.344-1.48-3.66-2.96-3.66-4.152 0-3.084-4.769-7.977-8.716-8.922-1.274-.288-1.357-.165-.74.987.37.699.206.699-1.727-.206C44.326.452 42.681 0 41.9 0h-1.44l1.44.946zM9.624 2.59c-2.796.74-4.235 1.563-6.003 3.454C1.031 8.716.25 10.772.044 15.254c-.246 5.592.494 8.017 3.372 10.854 3.659 3.66 8.963 4.729 16.076 3.248 2.426-.493 3.412-.534 4.194-.205.534.247 1.15.452 1.357.452.246 0 .41-2.179.41-5.18v-5.181l1.234-.452c.7-.247 1.234-.7 1.234-.987 0-.74-11.554-.576-11.8.123-.083.247.41.576 1.11.7l1.233.246v4.523c0 4.07-.082 4.564-.781 4.975-1.357.699-4.235.452-6.003-.535-4.646-2.631-6.167-13.691-2.755-20.434 1.44-2.92 2.755-3.824 5.715-4.03 3.577-.246 5.715 1.028 7.319 4.359 1.768 3.659 2.261 3.371 2.261-1.357 0-4.07-.246-4.564-1.686-3.248-.698.616-.904.616-2.508-.041-2.261-.905-7.73-1.152-10.402-.494zM63.691 3.042c0 .412.37.658.946.658 1.891 0 1.932.33 1.932 12.582 0 12.458.082 12.088-2.097 12.088-.41 0-.78.287-.78.616 0 .535.986.617 6.372.617s6.373-.082 6.373-.617c0-.329-.37-.616-.781-.616-1.768 0-2.097-.987-2.097-6.415v-5.098h1.275c2.63 0 3.124.74 4.481 6.702.452 2.015 1.11 4.153 1.44 4.852l.657 1.192h4.07c3.372 0 4.112-.123 4.112-.617 0-.329-.247-.616-.576-.616-1.439 0-2.343-1.48-3.371-5.51-1.11-4.482-1.645-5.345-4.07-6.455-1.44-.617-1.522-.74-.617-.74 1.398-.082 4.07-1.645 5.098-3.043.617-.863.863-1.768.863-3.371 0-2.755-.945-4.153-3.741-5.55-1.933-.988-2.385-1.029-10.731-1.152-7.812-.164-8.758-.082-8.758.493zm14.432 1.48c1.233.7 2.014 2.632 2.014 5.222 0 3.207-1.028 4.852-3.289 5.469-3.084.822-3.084.822-3.207-4.934-.041-2.796 0-5.345.082-5.633.247-.658 3.249-.74 4.4-.123z" fill="#fff"/></svg>