<svg width="325" height="135" viewBox="0 0 325 135" fill="none" xmlns="http://www.w3.org/2000/svg">
<path d="M1.62 124.874H4.176V104.066H1.62V101.906H15.048C16.152 101.906 17.16 102.038 18.072 102.302C18.984 102.542 19.764 102.926 20.412 103.454C21.084 103.982 21.6 104.654 21.96 105.47C22.32 106.286 22.5 107.246 22.5 108.35C22.5 110.078 21.984 111.506 20.952 112.634C19.92 113.762 18.588 114.494 16.956 114.83L21.492 122.642C21.972 123.482 22.476 124.07 23.004 124.406C23.532 124.718 24.204 124.874 25.02 124.874H25.236V127.034H22.176C21.384 127.034 20.688 126.974 20.088 126.854C19.512 126.71 18.996 126.494 18.54 126.206C18.108 125.918 17.724 125.558 17.388 125.126C17.052 124.694 16.728 124.19 16.416 123.614L12.384 115.766H9.216V124.874H11.772V127.034H1.62V124.874ZM9.216 113.534H13.428C14.7 113.534 15.66 113.222 16.308 112.598C16.98 111.974 17.316 111.074 17.316 109.898V107.882C17.316 106.706 16.98 105.806 16.308 105.182C15.66 104.558 14.7 104.246 13.428 104.246H9.216V113.534ZM36.0489 125.09C37.3449 125.09 38.3049 124.694 38.9289 123.902C39.5769 123.11 39.9009 121.994 39.9009 120.554V114.722C39.9009 113.282 39.5769 112.166 38.9289 111.374C38.3049 110.582 37.3449 110.186 36.0489 110.186C34.7529 110.186 33.7809 110.582 33.1329 111.374C32.5089 112.166 32.1969 113.282 32.1969 114.722V120.554C32.1969 121.994 32.5089 123.11 33.1329 123.902C33.7809 124.694 34.7529 125.09 36.0489 125.09ZM36.0489 127.466C34.7049 127.466 33.4809 127.25 32.3769 126.818C31.2969 126.362 30.3609 125.714 29.5689 124.874C28.8009 124.01 28.2009 122.978 27.7689 121.778C27.3369 120.554 27.1209 119.174 27.1209 117.638C27.1209 116.102 27.3369 114.734 27.7689 113.534C28.2009 112.31 28.8009 111.278 29.5689 110.438C30.3609 109.574 31.2969 108.926 32.3769 108.494C33.4809 108.038 34.7049 107.81 36.0489 107.81C37.3929 107.81 38.6049 108.038 39.6849 108.494C40.7889 108.926 41.7249 109.574 42.4929 110.438C43.2849 111.278 43.8969 112.31 44.3289 113.534C44.7609 114.734 44.9769 116.102 44.9769 117.638C44.9769 119.174 44.7609 120.554 44.3289 121.778C43.8969 122.978 43.2849 124.01 42.4929 124.874C41.7249 125.714 40.7889 126.362 39.6849 126.818C38.6049 127.25 37.3929 127.466 36.0489 127.466ZM51.1492 134.666C49.7812 134.666 48.7372 134.33 48.0172 133.658C47.2972 133.01 46.9372 132.218 46.9372 131.282C46.9372 130.49 47.1532 129.866 47.5852 129.41C48.0412 128.978 48.6652 128.762 49.4572 128.762C50.2012 128.762 50.7772 128.99 51.1852 129.446C51.6172 129.902 51.8332 130.466 51.8332 131.138C51.8332 131.474 51.7612 131.774 51.6172 132.038C51.4972 132.326 51.3652 132.53 51.2212 132.65L51.2572 132.866C51.3772 132.89 51.5692 132.902 51.8332 132.902C53.0812 132.902 54.1972 131.654 55.1812 129.158L55.6852 127.898L48.7372 110.402H46.9732V108.242H55.9372V110.402H53.7412L57.8812 122.138H58.0612L62.2012 110.402H60.0052V108.242H66.6292V110.402H64.9012L57.3412 129.302C57.0772 129.95 56.7652 130.598 56.4052 131.246C56.0692 131.894 55.6492 132.47 55.1452 132.974C54.6652 133.478 54.0892 133.886 53.4172 134.198C52.7692 134.51 52.0132 134.666 51.1492 134.666ZM73.973 127.466C72.029 127.466 70.589 126.998 69.653 126.062C68.717 125.126 68.249 123.83 68.249 122.174C68.249 120.35 68.909 118.97 70.229 118.034C71.573 117.098 73.661 116.63 76.493 116.63H79.049V114.362C79.049 112.898 78.749 111.794 78.149 111.05C77.549 110.282 76.565 109.898 75.197 109.898C74.141 109.898 73.325 110.054 72.749 110.366V110.51C72.989 110.654 73.217 110.882 73.433 111.194C73.673 111.482 73.793 111.89 73.793 112.418C73.793 113.114 73.577 113.69 73.145 114.146C72.737 114.578 72.125 114.794 71.309 114.794C70.613 114.794 70.037 114.566 69.581 114.11C69.149 113.654 68.933 113.054 68.933 112.31C68.933 111.734 69.089 111.182 69.401 110.654C69.737 110.102 70.229 109.622 70.877 109.214C71.525 108.782 72.317 108.446 73.253 108.206C74.213 107.942 75.317 107.81 76.565 107.81C78.965 107.81 80.765 108.362 81.965 109.466C83.165 110.546 83.765 112.07 83.765 114.038V124.91H86.069V126.71C85.709 126.95 85.229 127.13 84.629 127.25C84.029 127.394 83.417 127.466 82.793 127.466C81.593 127.466 80.729 127.178 80.201 126.602C79.673 126.002 79.409 125.246 79.409 124.334V124.226H79.229C79.061 124.634 78.845 125.03 78.581 125.414C78.317 125.798 77.981 126.146 77.573 126.458C77.165 126.746 76.661 126.986 76.061 127.178C75.485 127.37 74.789 127.466 73.973 127.466ZM75.809 124.586C76.769 124.586 77.549 124.358 78.149 123.902C78.749 123.446 79.049 122.678 79.049 121.598V118.574H76.997C75.557 118.574 74.525 118.838 73.901 119.366C73.301 119.87 73.001 120.602 73.001 121.562V122.21C73.001 123.026 73.253 123.626 73.757 124.01C74.285 124.394 74.969 124.586 75.809 124.586ZM88.8975 124.874H91.2015V103.382L88.8975 102.914V101.114L95.9175 99.6739V124.874H98.2215V127.034H88.8975V124.874ZM110.706 124.874H113.262V104.066H110.706V101.906H123.414C124.734 101.906 125.886 102.062 126.87 102.374C127.878 102.662 128.706 103.07 129.354 103.598C130.002 104.102 130.482 104.714 130.794 105.434C131.13 106.154 131.298 106.946 131.298 107.81C131.298 108.698 131.154 109.478 130.866 110.15C130.578 110.822 130.182 111.398 129.678 111.878C129.198 112.358 128.646 112.754 128.022 113.066C127.398 113.354 126.75 113.57 126.078 113.714V113.894C126.774 113.966 127.494 114.146 128.238 114.434C128.982 114.698 129.654 115.082 130.254 115.586C130.854 116.09 131.346 116.714 131.73 117.458C132.114 118.202 132.306 119.066 132.306 120.05C132.306 122.258 131.61 123.974 130.218 125.198C128.85 126.422 126.858 127.034 124.242 127.034H110.706V124.874ZM118.302 124.694H122.946C124.29 124.694 125.322 124.358 126.042 123.686C126.762 122.99 127.122 122.03 127.122 120.806V119.186C127.122 117.962 126.762 117.014 126.042 116.342C125.322 115.646 124.29 115.298 122.946 115.298H118.302V124.694ZM118.302 112.958H122.334C123.582 112.958 124.518 112.658 125.142 112.058C125.79 111.434 126.114 110.546 126.114 109.394V107.81C126.114 106.658 125.79 105.782 125.142 105.182C124.518 104.558 123.582 104.246 122.334 104.246H118.302V112.958ZM141.822 127.466C139.878 127.466 138.438 126.998 137.502 126.062C136.566 125.126 136.098 123.83 136.098 122.174C136.098 120.35 136.758 118.97 138.078 118.034C139.422 117.098 141.51 116.63 144.342 116.63H146.898V114.362C146.898 112.898 146.598 111.794 145.998 111.05C145.398 110.282 144.414 109.898 143.046 109.898C141.99 109.898 141.174 110.054 140.598 110.366V110.51C140.838 110.654 141.066 110.882 141.282 111.194C141.522 111.482 141.642 111.89 141.642 112.418C141.642 113.114 141.426 113.69 140.994 114.146C140.586 114.578 139.974 114.794 139.158 114.794C138.462 114.794 137.886 114.566 137.43 114.11C136.998 113.654 136.782 113.054 136.782 112.31C136.782 111.734 136.938 111.182 137.25 110.654C137.586 110.102 138.078 109.622 138.726 109.214C139.374 108.782 140.166 108.446 141.102 108.206C142.062 107.942 143.166 107.81 144.414 107.81C146.814 107.81 148.614 108.362 149.814 109.466C151.014 110.546 151.614 112.07 151.614 114.038V124.91H153.918V126.71C153.558 126.95 153.078 127.13 152.478 127.25C151.878 127.394 151.266 127.466 150.642 127.466C149.442 127.466 148.578 127.178 148.05 126.602C147.522 126.002 147.258 125.246 147.258 124.334V124.226H147.078C146.91 124.634 146.694 125.03 146.43 125.414C146.166 125.798 145.83 126.146 145.422 126.458C145.014 126.746 144.51 126.986 143.91 127.178C143.334 127.37 142.638 127.466 141.822 127.466ZM143.658 124.586C144.618 124.586 145.398 124.358 145.998 123.902C146.598 123.446 146.898 122.678 146.898 121.598V118.574H144.846C143.406 118.574 142.374 118.838 141.75 119.366C141.15 119.87 140.85 120.602 140.85 121.562V122.21C140.85 123.026 141.102 123.626 141.606 124.01C142.134 124.394 142.818 124.586 143.658 124.586ZM157.142 124.874H159.446V111.518L157.142 111.05V109.25L164.09 107.81V111.302H164.27C164.438 110.846 164.654 110.414 164.918 110.006C165.182 109.574 165.494 109.202 165.854 108.89C166.238 108.554 166.67 108.29 167.15 108.098C167.63 107.906 168.17 107.81 168.77 107.81C169.922 107.81 170.822 108.11 171.47 108.71C172.142 109.31 172.478 110.138 172.478 111.194C172.478 112.106 172.25 112.814 171.794 113.318C171.338 113.822 170.702 114.074 169.886 114.074C169.07 114.074 168.446 113.858 168.014 113.426C167.582 112.994 167.366 112.466 167.366 111.842C167.366 111.506 167.438 111.206 167.582 110.942C167.726 110.678 167.894 110.51 168.086 110.438V110.294C167.99 110.27 167.822 110.258 167.582 110.258C167.174 110.258 166.766 110.378 166.358 110.618C165.95 110.834 165.578 111.122 165.242 111.482C164.93 111.818 164.666 112.202 164.45 112.634C164.258 113.066 164.162 113.498 164.162 113.93V124.874H167.186V127.034H157.142V124.874ZM186.646 127.466C185.206 127.466 184.03 127.142 183.118 126.494C182.206 125.846 181.57 125.09 181.21 124.226H181.03L178.762 127.034H176.638V103.382L174.334 102.914V101.114L181.354 99.6739V111.014H181.534C181.894 110.174 182.494 109.43 183.334 108.782C184.174 108.134 185.278 107.81 186.646 107.81C187.798 107.81 188.83 108.038 189.742 108.494C190.678 108.95 191.47 109.61 192.118 110.474C192.79 111.314 193.294 112.346 193.63 113.57C193.99 114.77 194.17 116.126 194.17 117.638C194.17 119.15 193.99 120.518 193.63 121.742C193.294 122.942 192.79 123.974 192.118 124.838C191.47 125.678 190.678 126.326 189.742 126.782C188.83 127.238 187.798 127.466 186.646 127.466ZM185.098 124.514C186.298 124.514 187.27 124.106 188.014 123.29C188.758 122.474 189.13 121.322 189.13 119.834V115.442C189.13 113.954 188.758 112.802 188.014 111.986C187.27 111.17 186.298 110.762 185.098 110.762C184.09 110.762 183.214 111.074 182.47 111.698C181.726 112.298 181.354 113.126 181.354 114.182V121.094C181.354 122.15 181.726 122.99 182.47 123.614C183.214 124.214 184.09 124.514 185.098 124.514ZM207.132 127.466C205.692 127.466 204.408 127.226 203.28 126.746C202.176 126.266 201.24 125.594 200.472 124.73C199.704 123.842 199.116 122.798 198.708 121.598C198.324 120.374 198.132 119.042 198.132 117.602C198.132 116.114 198.336 114.77 198.744 113.57C199.176 112.346 199.776 111.314 200.544 110.474C201.312 109.61 202.224 108.95 203.28 108.494C204.36 108.038 205.548 107.81 206.844 107.81C208.14 107.81 209.304 108.026 210.336 108.458C211.392 108.866 212.28 109.454 213 110.222C213.744 110.99 214.308 111.914 214.692 112.994C215.1 114.05 215.304 115.238 215.304 116.558V117.674H203.208V118.97C203.208 120.698 203.652 122.03 204.54 122.966C205.452 123.878 206.64 124.334 208.104 124.334C209.448 124.334 210.528 124.034 211.344 123.434C212.16 122.834 212.76 122.09 213.144 121.202L214.908 122.282C214.692 122.882 214.368 123.494 213.936 124.118C213.528 124.718 213 125.27 212.352 125.774C211.728 126.278 210.984 126.686 210.12 126.998C209.256 127.31 208.26 127.466 207.132 127.466ZM203.208 115.586H210.408V115.118C210.408 113.39 210.096 112.118 209.472 111.302C208.872 110.486 207.996 110.078 206.844 110.078C205.692 110.078 204.792 110.486 204.144 111.302C203.52 112.094 203.208 113.354 203.208 115.082V115.586ZM218.892 124.874H221.196V111.518L218.892 111.05V109.25L225.84 107.81V111.302H226.02C226.188 110.846 226.404 110.414 226.668 110.006C226.932 109.574 227.244 109.202 227.604 108.89C227.988 108.554 228.42 108.29 228.9 108.098C229.38 107.906 229.92 107.81 230.52 107.81C231.672 107.81 232.572 108.11 233.22 108.71C233.892 109.31 234.228 110.138 234.228 111.194C234.228 112.106 234 112.814 233.544 113.318C233.088 113.822 232.452 114.074 231.636 114.074C230.82 114.074 230.196 113.858 229.764 113.426C229.332 112.994 229.116 112.466 229.116 111.842C229.116 111.506 229.188 111.206 229.332 110.942C229.476 110.678 229.644 110.51 229.836 110.438V110.294C229.74 110.27 229.572 110.258 229.332 110.258C228.924 110.258 228.516 110.378 228.108 110.618C227.7 110.834 227.328 111.122 226.992 111.482C226.68 111.818 226.416 112.202 226.2 112.634C226.008 113.066 225.912 113.498 225.912 113.93V124.874H228.936V127.034H218.892V124.874ZM244.688 127.466C243.416 127.466 242.407 127.226 241.663 126.746C240.919 126.266 240.451 125.726 240.259 125.126H240.115V127.034H237.019V121.418H240.115V122.066C240.115 123.026 240.415 123.77 241.015 124.298C241.615 124.826 242.587 125.09 243.931 125.09C246.331 125.09 247.531 124.274 247.531 122.642C247.531 121.97 247.315 121.442 246.883 121.058C246.451 120.65 245.779 120.326 244.867 120.086L243.067 119.618C241.075 119.09 239.587 118.358 238.603 117.422C237.643 116.462 237.163 115.166 237.163 113.534C237.163 111.71 237.763 110.306 238.963 109.322C240.163 108.314 241.771 107.81 243.787 107.81C245.011 107.81 245.972 108.038 246.668 108.494C247.388 108.926 247.844 109.442 248.035 110.042H248.18V108.242H251.276V113.858H248.18V112.994C248.18 112.082 247.88 111.386 247.28 110.906C246.679 110.426 245.731 110.186 244.436 110.186C242.371 110.186 241.339 110.942 241.339 112.454C241.339 113.15 241.543 113.714 241.951 114.146C242.383 114.578 243.103 114.914 244.112 115.154L245.803 115.55C247.772 116.03 249.26 116.714 250.268 117.602C251.276 118.49 251.78 119.81 251.78 121.562C251.78 123.41 251.132 124.862 249.836 125.918C248.564 126.95 246.848 127.466 244.688 127.466ZM255.162 124.874H257.466V103.382L255.162 102.914V101.114L262.182 99.6739V111.302H262.362C262.53 110.846 262.758 110.414 263.046 110.006C263.358 109.574 263.73 109.202 264.162 108.89C264.594 108.554 265.098 108.29 265.674 108.098C266.25 107.906 266.898 107.81 267.618 107.81C269.898 107.81 271.518 108.398 272.478 109.574C273.438 110.726 273.918 112.466 273.918 114.794V124.874H276.222V127.034H267.006V124.874H269.202V115.01C269.202 113.594 268.938 112.574 268.41 111.95C267.882 111.302 267.03 110.978 265.854 110.978C265.398 110.978 264.954 111.038 264.522 111.158C264.09 111.278 263.694 111.47 263.334 111.734C262.998 111.974 262.722 112.286 262.506 112.67C262.29 113.054 262.182 113.51 262.182 114.038V124.874H264.378V127.034H255.162V124.874ZM288.339 125.09C289.635 125.09 290.595 124.694 291.219 123.902C291.867 123.11 292.191 121.994 292.191 120.554V114.722C292.191 113.282 291.867 112.166 291.219 111.374C290.595 110.582 289.635 110.186 288.339 110.186C287.043 110.186 286.071 110.582 285.423 111.374C284.799 112.166 284.487 113.282 284.487 114.722V120.554C284.487 121.994 284.799 123.11 285.423 123.902C286.071 124.694 287.043 125.09 288.339 125.09ZM288.339 127.466C286.995 127.466 285.771 127.25 284.667 126.818C283.587 126.362 282.651 125.714 281.859 124.874C281.091 124.01 280.491 122.978 280.059 121.778C279.627 120.554 279.411 119.174 279.411 117.638C279.411 116.102 279.627 114.734 280.059 113.534C280.491 112.31 281.091 111.278 281.859 110.438C282.651 109.574 283.587 108.926 284.667 108.494C285.771 108.038 286.995 107.81 288.339 107.81C289.683 107.81 290.895 108.038 291.975 108.494C293.079 108.926 294.015 109.574 294.783 110.438C295.575 111.278 296.187 112.31 296.619 113.534C297.051 114.734 297.267 116.102 297.267 117.638C297.267 119.174 297.051 120.554 296.619 121.778C296.187 122.978 295.575 124.01 294.783 124.874C294.015 125.714 293.079 126.362 291.975 126.818C290.895 127.25 289.683 127.466 288.339 127.466ZM300.549 132.074H302.853V111.518L300.549 111.05V109.25L307.569 107.81V111.05H307.749C308.109 110.186 308.709 109.43 309.549 108.782C310.413 108.134 311.517 107.81 312.861 107.81C314.013 107.81 315.045 108.038 315.957 108.494C316.893 108.95 317.685 109.61 318.333 110.474C319.005 111.314 319.509 112.346 319.845 113.57C320.205 114.77 320.385 116.126 320.385 117.638C320.385 119.15 320.205 120.518 319.845 121.742C319.509 122.942 319.005 123.974 318.333 124.838C317.685 125.678 316.893 126.326 315.957 126.782C315.045 127.238 314.013 127.466 312.861 127.466C311.493 127.466 310.389 127.142 309.549 126.494C308.709 125.846 308.109 125.102 307.749 124.262H307.569V132.074H310.593V134.234H300.549V132.074ZM311.313 124.514C312.513 124.514 313.485 124.106 314.229 123.29C314.973 122.474 315.345 121.322 315.345 119.834V115.442C315.345 113.954 314.973 112.802 314.229 111.986C313.485 111.17 312.513 110.762 311.313 110.762C310.305 110.762 309.429 111.074 308.685 111.698C307.941 112.298 307.569 113.126 307.569 114.182V121.094C307.569 122.15 307.941 122.99 308.685 123.614C309.429 124.214 310.305 124.514 311.313 124.514Z" fill="white"/>
<path d="M18.6207 101.067C18.6207 100.886 18.548 100.712 18.4187 100.584C18.2894 100.455 18.114 100.383 17.931 100.383H2.06897C1.88606 100.383 1.71064 100.455 1.58131 100.584C1.45197 100.712 1.37931 100.886 1.37931 101.067C1.37931 101.249 1.45197 101.423 1.58131 101.551C1.71064 101.679 1.88606 101.751 2.06897 101.751H17.931C18.114 101.751 18.2894 101.679 18.4187 101.551C18.548 101.423 18.6207 101.249 18.6207 101.067ZM17.931 95.9386H2.06897C1.88606 95.9386 1.71064 96.0107 1.58131 96.1389C1.45197 96.2672 1.37931 96.4411 1.37931 96.6224C1.37931 96.8038 1.45197 96.9777 1.58131 97.106C1.71064 97.2342 1.88606 97.3063 2.06897 97.3063H17.931C18.114 97.3063 18.2894 97.2342 18.4187 97.106C18.548 96.9777 18.6207 96.8038 18.6207 96.6224C18.6207 96.4411 18.548 96.2672 18.4187 96.1389C18.2894 96.0107 18.114 95.9386 17.931 95.9386ZM5.97242 91.1554C7.16897 91.0323 7.98276 90.4818 8.39311 89.5177C6.37931 89.7023 4.66552 90.2288 3.59655 90.9502C4.11414 91.1219 4.65759 91.205 5.20345 91.1964C5.46031 91.1957 5.71697 91.182 5.97242 91.1554V91.1554ZM14.0276 91.1554C14.2831 91.182 14.5397 91.1957 14.7966 91.1964C15.3424 91.205 15.8857 91.1218 16.4035 90.9502C15.3345 90.2288 13.6172 89.6989 11.6035 89.5177C12.0138 90.4818 12.831 91.0323 14.0276 91.1554V91.1554Z" fill="white"/>
<path d="M19.5612 86.7072C18.5715 87.0491 18.2405 88.4167 18.2405 88.4167C18.2405 88.4167 16.9233 88.7586 16.9233 89.4424C16.9233 90.1263 18.2405 90.4682 18.2405 90.4682C17.9329 90.9041 17.5057 91.2435 17.0095 91.446C16.0462 91.8504 14.9895 91.9852 13.9543 91.8358C13.3172 91.7852 12.7025 91.5797 12.1646 91.2374C11.5348 90.8118 11.0701 90.1858 10.8474 89.463C10.7348 89.1248 10.671 88.7726 10.6578 88.4167C10.6578 88.4167 12.306 88.0748 12.306 87.391C12.306 86.7072 10.9888 86.3653 10.9888 86.3653C10.9888 86.3653 10.9888 84.9977 9.99913 84.6558C9.00948 84.9977 9.00948 86.3653 9.00948 86.3653C9.00948 86.3653 7.69224 86.7072 7.69224 87.391C7.69224 88.0748 9.34051 88.4167 9.34051 88.4167C9.32727 88.7726 9.26342 89.1248 9.15086 89.463C8.84741 90.3895 8.06465 91.6272 6.04396 91.8358C5.00878 91.9852 3.95209 91.8504 2.98879 91.446C2.49257 91.2435 2.06533 90.9041 1.75776 90.4682C1.75776 90.4682 3.075 90.1263 3.075 89.4424C3.075 88.7586 1.75776 88.4167 1.75776 88.4167C1.75776 88.4167 1.42672 87.0491 0.437069 86.7072C0.099138 86.5909 0.00948291 86.9089 0.00258636 87.1756C0.012962 87.9509 0.110109 88.7226 0.292241 89.4766C0.516379 90.6323 0.787758 91.7787 1.10603 92.9162C1.32144 93.7192 1.58983 94.5073 1.90948 95.2754C1.96121 95.2617 2.01465 95.2548 2.0681 95.2548H17.9302C17.9836 95.2548 18.0371 95.2617 18.0888 95.2754C18.4084 94.5073 18.6768 93.7192 18.8922 92.9162C19.2129 91.7811 19.4843 90.6347 19.706 89.4766C19.8882 88.7226 19.9853 87.9509 19.9957 87.1756C19.9888 86.9089 19.8991 86.5909 19.5612 86.7072V86.7072ZM2.0681 97.9901V99.6996H17.9302V97.9901H2.0681ZM4.48189 99.1868C4.45921 99.1867 4.43675 99.1822 4.41581 99.1736C4.39486 99.1649 4.37585 99.1523 4.35984 99.1363C4.34383 99.1204 4.33114 99.1015 4.3225 99.0807C4.31386 99.0599 4.30943 99.0376 4.30948 99.0151C4.30952 98.9926 4.31404 98.9704 4.32276 98.9496C4.33149 98.9288 4.34425 98.91 4.36032 98.8941C4.3764 98.8782 4.39547 98.8656 4.41644 98.8571C4.43742 98.8485 4.4599 98.8441 4.48258 98.8442C4.5284 98.8443 4.57231 98.8624 4.60464 98.8946C4.63697 98.9268 4.65509 98.9704 4.655 99.0158C4.65491 99.0612 4.63662 99.1048 4.60415 99.1368C4.57169 99.1689 4.52771 99.1868 4.48189 99.1868ZM7.24051 99.1868C7.21782 99.1867 7.19537 99.1822 7.17443 99.1736C7.15348 99.1649 7.13446 99.1523 7.11845 99.1363C7.10244 99.1204 7.08976 99.1015 7.08112 99.0807C7.07248 99.0599 7.06805 99.0376 7.0681 99.0151C7.06814 98.9926 7.07266 98.9704 7.08138 98.9496C7.0901 98.9288 7.10287 98.91 7.11894 98.8941C7.13502 98.8782 7.15409 98.8656 7.17506 98.8571C7.19604 98.8485 7.21851 98.8441 7.2412 98.8442C7.28702 98.8443 7.33093 98.8624 7.36326 98.8946C7.39559 98.9268 7.41371 98.9704 7.41362 99.0158C7.41352 99.0612 7.39523 99.1048 7.36277 99.1368C7.33031 99.1689 7.28633 99.1868 7.24051 99.1868ZM9.99913 99.1868C9.97644 99.1867 9.95399 99.1822 9.93304 99.1736C9.9121 99.1649 9.89308 99.1523 9.87707 99.1363C9.86106 99.1204 9.84838 99.1015 9.83974 99.0807C9.8311 99.0599 9.82667 99.0376 9.82672 99.0151C9.82676 98.9926 9.83128 98.9704 9.84 98.9496C9.84872 98.9288 9.86149 98.91 9.87756 98.8941C9.89363 98.8782 9.9127 98.8656 9.93368 98.8571C9.95466 98.8485 9.97713 98.8441 9.99982 98.8442C10.0456 98.8443 10.0895 98.8624 10.1219 98.8946C10.1542 98.9268 10.1723 98.9704 10.1722 99.0158C10.1721 99.0612 10.1539 99.1048 10.1214 99.1368C10.0889 99.1689 10.0449 99.1868 9.99913 99.1868ZM12.7577 99.1868C12.7133 99.1848 12.6714 99.1659 12.6406 99.134C12.6099 99.1021 12.5927 99.0597 12.5927 99.0156C12.5927 98.9715 12.6099 98.9291 12.6406 98.8972C12.6714 98.8654 12.7133 98.8465 12.7577 98.8445C12.8012 98.8478 12.8418 98.8673 12.8714 98.899C12.901 98.9308 12.9175 98.9724 12.9175 99.0156C12.9175 99.0589 12.901 99.1005 12.8714 99.1322C12.8418 99.1639 12.8012 99.1834 12.7577 99.1868V99.1868ZM15.5164 99.1868C15.4719 99.1848 15.43 99.1659 15.3992 99.134C15.3685 99.1021 15.3513 99.0597 15.3513 99.0156C15.3513 98.9715 15.3685 98.9291 15.3992 98.8972C15.43 98.8654 15.4719 98.8465 15.5164 98.8445C15.5598 98.8478 15.6004 98.8673 15.63 98.899C15.6597 98.9308 15.6761 98.9724 15.6761 99.0156C15.6761 99.0589 15.6597 99.1005 15.63 99.1322C15.6004 99.1639 15.5598 99.1834 15.5164 99.1868V99.1868Z" fill="white"/>
<path d="M127.621 101.067C127.621 100.886 127.548 100.712 127.419 100.584C127.289 100.455 127.114 100.383 126.931 100.383H111.069C110.886 100.383 110.711 100.455 110.581 100.584C110.452 100.712 110.379 100.886 110.379 101.067C110.379 101.249 110.452 101.423 110.581 101.551C110.711 101.679 110.886 101.751 111.069 101.751H126.931C127.114 101.751 127.289 101.679 127.419 101.551C127.548 101.423 127.621 101.249 127.621 101.067ZM126.931 95.9386H111.069C110.886 95.9386 110.711 96.0107 110.581 96.1389C110.452 96.2672 110.379 96.4411 110.379 96.6224C110.379 96.8038 110.452 96.9777 110.581 97.106C110.711 97.2342 110.886 97.3063 111.069 97.3063H126.931C127.114 97.3063 127.289 97.2342 127.419 97.106C127.548 96.9777 127.621 96.8038 127.621 96.6224C127.621 96.4411 127.548 96.2672 127.419 96.1389C127.289 96.0107 127.114 95.9386 126.931 95.9386ZM114.972 91.1554C116.169 91.0323 116.983 90.4818 117.393 89.5177C115.379 89.7023 113.666 90.2288 112.597 90.9502C113.114 91.1219 113.658 91.205 114.203 91.1964C114.46 91.1957 114.717 91.182 114.972 91.1554V91.1554ZM123.028 91.1554C123.283 91.182 123.54 91.1957 123.797 91.1964C124.342 91.205 124.886 91.1218 125.403 90.9502C124.334 90.2288 122.617 89.6989 120.603 89.5177C121.014 90.4818 121.831 91.0323 123.028 91.1554V91.1554Z" fill="white"/>
<path d="M128.561 86.7072C127.572 87.0491 127.241 88.4167 127.241 88.4167C127.241 88.4167 125.923 88.7586 125.923 89.4424C125.923 90.1263 127.241 90.4682 127.241 90.4682C126.933 90.9041 126.506 91.2435 126.009 91.446C125.046 91.8504 123.989 91.9852 122.954 91.8358C122.317 91.7852 121.703 91.5797 121.165 91.2374C120.535 90.8118 120.07 90.1858 119.847 89.463C119.735 89.1248 119.671 88.7726 119.658 88.4167C119.658 88.4167 121.306 88.0748 121.306 87.391C121.306 86.7072 119.989 86.3653 119.989 86.3653C119.989 86.3653 119.989 84.9977 118.999 84.6558C118.009 84.9977 118.009 86.3653 118.009 86.3653C118.009 86.3653 116.692 86.7072 116.692 87.391C116.692 88.0748 118.341 88.4167 118.341 88.4167C118.327 88.7726 118.263 89.1248 118.151 89.463C117.847 90.3895 117.065 91.6272 115.044 91.8358C114.009 91.9852 112.952 91.8504 111.989 91.446C111.493 91.2435 111.065 90.9041 110.758 90.4682C110.758 90.4682 112.075 90.1263 112.075 89.4424C112.075 88.7586 110.758 88.4167 110.758 88.4167C110.758 88.4167 110.427 87.0491 109.437 86.7072C109.099 86.5909 109.009 86.9089 109.003 87.1756C109.013 87.9509 109.11 88.7226 109.292 89.4766C109.516 90.6323 109.788 91.7787 110.106 92.9162C110.321 93.7192 110.59 94.5073 110.909 95.2754C110.961 95.2617 111.015 95.2548 111.068 95.2548H126.93C126.984 95.2548 127.037 95.2617 127.089 95.2754C127.408 94.5073 127.677 93.7192 127.892 92.9162C128.213 91.7811 128.484 90.6347 128.706 89.4766C128.888 88.7226 128.985 87.9509 128.996 87.1756C128.989 86.9089 128.899 86.5909 128.561 86.7072V86.7072ZM111.068 97.9901V99.6996H126.93V97.9901H111.068ZM113.482 99.1868C113.459 99.1867 113.437 99.1822 113.416 99.1736C113.395 99.1649 113.376 99.1523 113.36 99.1363C113.344 99.1204 113.331 99.1015 113.322 99.0807C113.314 99.0599 113.309 99.0376 113.309 99.0151C113.31 98.9926 113.314 98.9704 113.323 98.9496C113.331 98.9288 113.344 98.91 113.36 98.8941C113.376 98.8782 113.395 98.8656 113.416 98.8571C113.437 98.8485 113.46 98.8441 113.483 98.8442C113.528 98.8443 113.572 98.8624 113.605 98.8946C113.637 98.9268 113.655 98.9704 113.655 99.0158C113.655 99.0612 113.637 99.1048 113.604 99.1368C113.572 99.1689 113.528 99.1868 113.482 99.1868ZM116.241 99.1868C116.218 99.1867 116.195 99.1822 116.174 99.1736C116.153 99.1649 116.134 99.1523 116.118 99.1363C116.102 99.1204 116.09 99.1015 116.081 99.0807C116.072 99.0599 116.068 99.0376 116.068 99.0151C116.068 98.9926 116.073 98.9704 116.081 98.9496C116.09 98.9288 116.103 98.91 116.119 98.8941C116.135 98.8782 116.154 98.8656 116.175 98.8571C116.196 98.8485 116.219 98.8441 116.241 98.8442C116.287 98.8443 116.331 98.8624 116.363 98.8946C116.396 98.9268 116.414 98.9704 116.414 99.0158C116.414 99.0612 116.395 99.1048 116.363 99.1368C116.33 99.1689 116.286 99.1868 116.241 99.1868ZM118.999 99.1868C118.976 99.1867 118.954 99.1822 118.933 99.1736C118.912 99.1649 118.893 99.1523 118.877 99.1363C118.861 99.1204 118.848 99.1015 118.84 99.0807C118.831 99.0599 118.827 99.0376 118.827 99.0151C118.827 98.9926 118.831 98.9704 118.84 98.9496C118.849 98.9288 118.861 98.91 118.878 98.8941C118.894 98.8782 118.913 98.8656 118.934 98.8571C118.955 98.8485 118.977 98.8441 119 98.8442C119.046 98.8443 119.09 98.8624 119.122 98.8946C119.154 98.9268 119.172 98.9704 119.172 99.0158C119.172 99.0612 119.154 99.1048 119.121 99.1368C119.089 99.1689 119.045 99.1868 118.999 99.1868ZM121.758 99.1868C121.713 99.1848 121.671 99.1659 121.641 99.134C121.61 99.1021 121.593 99.0597 121.593 99.0156C121.593 98.9715 121.61 98.9291 121.641 98.8972C121.671 98.8654 121.713 98.8465 121.758 98.8445C121.801 98.8478 121.842 98.8673 121.871 98.899C121.901 98.9308 121.917 98.9724 121.917 99.0156C121.917 99.0589 121.901 99.1005 121.871 99.1322C121.842 99.1639 121.801 99.1834 121.758 99.1868V99.1868ZM124.516 99.1868C124.472 99.1848 124.43 99.1659 124.399 99.134C124.368 99.1021 124.351 99.0597 124.351 99.0156C124.351 98.9715 124.368 98.9291 124.399 98.8972C124.43 98.8654 124.472 98.8465 124.516 98.8445C124.56 98.8478 124.6 98.8673 124.63 98.899C124.66 98.9308 124.676 98.9724 124.676 99.0156C124.676 99.0589 124.66 99.1005 124.63 99.1322C124.6 99.1639 124.56 99.1834 124.516 99.1868V99.1868Z" fill="white"/>
<path d="M192.31 60.4489C192.31 59.8322 192.063 59.2409 191.624 58.8049C191.184 58.3688 190.587 58.1239 189.966 58.1239H136.034C135.413 58.1239 134.816 58.3688 134.376 58.8049C133.937 59.2409 133.69 59.8322 133.69 60.4489C133.69 61.0655 133.937 61.6568 134.376 62.0928C134.816 62.5289 135.413 62.7738 136.034 62.7738H189.966C190.587 62.7738 191.184 62.5289 191.624 62.0928C192.063 61.6568 192.31 61.0655 192.31 60.4489ZM189.966 43.0117H136.034C135.413 43.0117 134.816 43.2566 134.376 43.6926C133.937 44.1287 133.69 44.72 133.69 45.3366C133.69 45.9533 133.937 46.5446 134.376 46.9806C134.816 47.4166 135.413 47.6616 136.034 47.6616H189.966C190.587 47.6616 191.184 47.4166 191.624 46.9806C192.063 46.5446 192.31 45.9533 192.31 45.3366C192.31 44.72 192.063 44.1287 191.624 43.6926C191.184 43.2566 190.587 43.0117 189.966 43.0117ZM149.306 26.7486C153.374 26.3301 156.141 24.4585 157.537 21.1804C150.69 21.8081 144.863 23.5983 141.228 26.0511C142.988 26.6347 144.836 26.9172 146.692 26.8881C147.565 26.8858 148.438 26.8393 149.306 26.7486V26.7486ZM176.694 26.7486C177.563 26.8393 178.435 26.8858 179.308 26.8881C181.164 26.9175 183.011 26.6345 184.772 26.0511C181.137 23.5983 175.299 21.7965 168.452 21.1804C169.847 24.4585 172.626 26.3301 176.694 26.7486V26.7486Z" fill="white"/>
<path d="M195.511 11.6248C192.146 12.7873 191.021 17.4372 191.021 17.4372C191.021 17.4372 186.542 18.5996 186.542 20.9246C186.542 23.2496 191.021 24.412 191.021 24.412C189.975 25.8944 188.522 27.0482 186.835 27.7367C183.56 29.1117 179.967 29.5701 176.448 29.062C174.282 28.89 172.192 28.1913 170.363 27.0276C168.221 25.5803 166.641 23.4521 165.884 20.9944C165.501 19.8446 165.284 18.6471 165.239 17.4372C165.239 17.4372 170.843 16.2747 170.843 13.9497C170.843 11.6248 166.365 10.4623 166.365 10.4623C166.365 10.4623 166.365 5.81239 163 4.64991C159.635 5.81239 159.635 10.4623 159.635 10.4623C159.635 10.4623 155.157 11.6248 155.157 13.9497C155.157 16.2747 160.761 17.4372 160.761 17.4372C160.716 18.6471 160.499 19.8446 160.116 20.9944C159.084 24.1447 156.423 28.3528 149.552 29.062C146.033 29.5701 142.44 29.1117 139.165 27.7367C137.478 27.0482 136.025 25.8944 134.979 24.412C134.979 24.412 139.458 23.2496 139.458 20.9246C139.458 18.5996 134.979 17.4372 134.979 17.4372C134.979 17.4372 133.854 12.7873 130.489 11.6248C129.34 11.2295 129.035 12.3106 129.012 13.2174C129.047 15.8533 129.377 18.4772 129.997 21.0409C130.759 24.97 131.681 28.8678 132.763 32.7354C133.496 35.4655 134.408 38.145 135.495 40.7565C135.671 40.71 135.853 40.6867 136.034 40.6867H189.966C190.147 40.6867 190.329 40.71 190.505 40.7565C191.592 38.145 192.504 35.4655 193.237 32.7354C194.327 28.876 195.25 24.9782 196.003 21.0409C196.623 18.4772 196.953 15.8533 196.988 13.2174C196.965 12.3106 196.66 11.2295 195.511 11.6248V11.6248ZM136.034 49.9866V55.799H189.966V49.9866H136.034ZM144.241 54.0552C144.164 54.0551 144.088 54.0399 144.017 54.0105C143.945 53.981 143.881 53.938 143.826 53.8838C143.772 53.8296 143.729 53.7654 143.699 53.6946C143.67 53.6239 143.655 53.5482 143.655 53.4717C143.655 53.3952 143.671 53.3195 143.7 53.2489C143.73 53.1783 143.773 53.1142 143.828 53.0602C143.883 53.0062 143.948 52.9635 144.019 52.9343C144.09 52.9052 144.167 52.8903 144.244 52.8904C144.4 52.8907 144.549 52.9524 144.659 53.0618C144.769 53.1713 144.83 53.3195 144.83 53.474C144.83 53.6285 144.767 53.7765 144.657 53.8855C144.547 53.9945 144.397 54.0555 144.241 54.0552ZM153.621 54.0552C153.544 54.0551 153.467 54.0399 153.396 54.0105C153.325 53.981 153.26 53.938 153.206 53.8838C153.151 53.8296 153.108 53.7654 153.079 53.6946C153.049 53.6239 153.034 53.5482 153.034 53.4717C153.035 53.3952 153.05 53.3195 153.08 53.2489C153.109 53.1783 153.153 53.1142 153.207 53.0602C153.262 53.0062 153.327 52.9635 153.398 52.9343C153.469 52.9052 153.546 52.8903 153.623 52.8904C153.779 52.8907 153.928 52.9524 154.038 53.0618C154.148 53.1713 154.21 53.3195 154.209 53.474C154.209 53.6285 154.147 53.7765 154.036 53.8855C153.926 53.9945 153.776 54.0555 153.621 54.0552ZM163 54.0552C162.923 54.0551 162.847 54.0399 162.775 54.0105C162.704 53.981 162.639 53.938 162.585 53.8838C162.531 53.8296 162.487 53.7654 162.458 53.6946C162.429 53.6239 162.414 53.5482 162.414 53.4717C162.414 53.3952 162.429 53.3195 162.459 53.2489C162.489 53.1783 162.532 53.1142 162.587 53.0602C162.641 53.0062 162.706 52.9635 162.777 52.9343C162.849 52.9052 162.925 52.8903 163.002 52.8904C163.158 52.8907 163.307 52.9524 163.417 53.0618C163.527 53.1713 163.589 53.3195 163.589 53.474C163.588 53.6285 163.526 53.7765 163.416 53.8855C163.305 53.9945 163.156 54.0555 163 54.0552ZM172.379 54.0552C172.228 54.0485 172.086 53.9843 171.981 53.8759C171.877 53.7676 171.818 53.6234 171.818 53.4734C171.818 53.3235 171.877 53.1793 171.981 53.0709C172.086 52.9625 172.228 52.8983 172.379 52.8916C172.527 52.903 172.665 52.9692 172.766 53.077C172.866 53.1849 172.922 53.3265 172.922 53.4734C172.922 53.6204 172.866 53.7619 172.766 53.8698C172.665 53.9777 172.527 54.0439 172.379 54.0552V54.0552ZM181.759 54.0552C181.608 54.0485 181.465 53.9843 181.36 53.8759C181.256 53.7676 181.197 53.6234 181.197 53.4734C181.197 53.3235 181.256 53.1793 181.36 53.0709C181.465 52.9625 181.608 52.8983 181.759 52.8916C181.906 52.903 182.044 52.9692 182.145 53.077C182.246 53.1849 182.302 53.3265 182.302 53.4734C182.302 53.6204 182.246 53.7619 182.145 53.8698C182.044 53.9777 181.906 54.0439 181.759 54.0552V54.0552Z" fill="white"/>
</svg>
