<svg width="27" height="43" viewBox="0 0 27 43" fill="none" xmlns="http://www.w3.org/2000/svg">
<g clip-path="url(#clip0)">
<g clip-path="url(#clip1)">
<path d="M24.4637 21.4138C24.4637 21.1852 24.3721 20.9659 24.2092 20.8042C24.0462 20.6426 23.8251 20.5517 23.5947 20.5517H3.60718C3.3767 20.5517 3.15566 20.6426 2.99269 20.8042C2.82972 20.9659 2.73816 21.1852 2.73816 21.4138C2.73816 21.6424 2.82972 21.8617 2.99269 22.0234C3.15566 22.185 3.3767 22.2759 3.60718 22.2759H23.5947C23.8251 22.2759 24.0462 22.185 24.2092 22.0234C24.3721 21.8617 24.4637 21.6424 24.4637 21.4138ZM23.5947 14.9483H3.60718C3.3767 14.9483 3.15566 15.0391 2.99269 15.2008C2.82972 15.3624 2.73816 15.5817 2.73816 15.8104C2.73816 16.039 2.82972 16.2583 2.99269 16.4199C3.15566 16.5816 3.3767 16.6724 3.60718 16.6724H23.5947C23.8251 16.6724 24.0462 16.5816 24.2092 16.4199C24.3721 16.2583 24.4637 16.039 24.4637 15.8104C24.4637 15.5817 24.3721 15.3624 24.2092 15.2008C24.0462 15.0391 23.8251 14.9483 23.5947 14.9483ZM8.52584 8.91811C10.0336 8.76294 11.059 8.06897 11.5761 6.85345C9.03856 7.08621 6.87904 7.75001 5.53206 8.65949C6.18426 8.87587 6.86905 8.98061 7.55688 8.96983C7.88054 8.96898 8.20395 8.95172 8.52584 8.91811V8.91811ZM18.676 8.91811C18.998 8.95173 19.3213 8.96897 19.645 8.96983C20.3327 8.98073 21.0174 8.87579 21.6698 8.65949C20.3228 7.75001 18.1589 7.0819 15.6214 6.85345C16.1385 8.06897 17.1683 8.76294 18.676 8.91811V8.91811Z" fill="black"/>
<path d="M25.6501 3.31039C24.403 3.74142 23.9859 5.46556 23.9859 5.46556C23.9859 5.46556 22.3261 5.8966 22.3261 6.75866C22.3261 7.62073 23.9859 8.05177 23.9859 8.05177C23.5983 8.60141 23.06 9.02925 22.4347 9.28453C21.2209 9.79437 19.8893 9.96432 18.5849 9.77591C17.7822 9.71214 17.0076 9.45307 16.3298 9.0216C15.5361 8.48494 14.9506 7.69582 14.67 6.78453C14.5281 6.35822 14.4477 5.91418 14.431 5.46556C14.431 5.46556 16.508 5.03453 16.508 4.17246C16.508 3.31039 14.8481 2.87935 14.8481 2.87935C14.8481 2.87935 14.8481 1.15522 13.6011 0.724182C12.3541 1.15522 12.3541 2.87935 12.3541 2.87935C12.3541 2.87935 10.6942 3.31039 10.6942 4.17246C10.6942 5.03453 12.7712 5.46556 12.7712 5.46556C12.7545 5.91418 12.674 6.35822 12.5322 6.78453C12.1498 7.95263 11.1635 9.51298 8.61726 9.77591C7.31285 9.96432 5.98134 9.79437 4.7675 9.28453C4.14222 9.02925 3.60386 8.60141 3.2163 8.05177C3.2163 8.05177 4.87613 7.62073 4.87613 6.75866C4.87613 5.8966 3.2163 5.46556 3.2163 5.46556C3.2163 5.46556 2.79917 3.74142 1.55212 3.31039C1.1263 3.16384 1.01333 3.5647 1.00464 3.90091C1.01771 4.87828 1.14013 5.85119 1.36963 6.80177C1.65206 8.25866 1.99402 9.70392 2.39507 11.138C2.6665 12.1503 3.0047 13.1438 3.40748 14.1121C3.47266 14.0949 3.54001 14.0863 3.60736 14.0863H23.5948C23.6622 14.0863 23.7295 14.0949 23.7947 14.1121C24.1975 13.1438 24.5357 12.1503 24.8071 11.138C25.2112 9.70694 25.5532 8.26168 25.8326 6.80177C26.0621 5.85119 26.1845 4.87828 26.1976 3.90091C26.1889 3.5647 26.0759 3.16384 25.6501 3.31039V3.31039ZM3.60736 17.5345V19.6897H23.5948V17.5345H3.60736ZM6.64893 19.0431C6.62034 19.0431 6.59205 19.0374 6.56566 19.0265C6.53927 19.0156 6.5153 18.9997 6.49513 18.9796C6.47495 18.9595 6.45897 18.9357 6.44808 18.9094C6.43719 18.8832 6.43162 18.8551 6.43167 18.8268C6.43173 18.7984 6.43742 18.7703 6.44841 18.7442C6.4594 18.718 6.47549 18.6942 6.49574 18.6742C6.516 18.6542 6.54003 18.6383 6.56646 18.6275C6.59289 18.6167 6.62121 18.6112 6.6498 18.6113C6.70753 18.6114 6.76286 18.6342 6.8036 18.6748C6.84434 18.7154 6.86717 18.7704 6.86705 18.8276C6.86694 18.8849 6.84389 18.9398 6.80299 18.9802C6.76208 19.0206 6.70666 19.0433 6.64893 19.0431ZM10.125 19.0431C10.0964 19.0431 10.0681 19.0374 10.0417 19.0265C10.0153 19.0156 9.99138 18.9997 9.97121 18.9796C9.95104 18.9595 9.93505 18.9357 9.92416 18.9094C9.91327 18.8832 9.9077 18.8551 9.90776 18.8268C9.90781 18.7984 9.9135 18.7703 9.92449 18.7442C9.93549 18.718 9.95157 18.6942 9.97182 18.6742C9.99208 18.6542 10.0161 18.6383 10.0425 18.6275C10.069 18.6167 10.0973 18.6112 10.1259 18.6113C10.1836 18.6114 10.2389 18.6342 10.2797 18.6748C10.3204 18.7154 10.3433 18.7704 10.3431 18.8276C10.343 18.8849 10.32 18.9398 10.2791 18.9802C10.2382 19.0206 10.1827 19.0433 10.125 19.0431ZM13.6011 19.0431C13.5725 19.0431 13.5442 19.0374 13.5178 19.0265C13.4914 19.0156 13.4675 18.9997 13.4473 18.9796C13.4271 18.9595 13.4111 18.9357 13.4002 18.9094C13.3894 18.8832 13.3838 18.8551 13.3838 18.8268C13.3839 18.7984 13.3896 18.7703 13.4006 18.7442C13.4116 18.718 13.4277 18.6942 13.4479 18.6742C13.4682 18.6542 13.4922 18.6383 13.5186 18.6275C13.5451 18.6167 13.5734 18.6112 13.602 18.6113C13.6597 18.6114 13.715 18.6342 13.7558 18.6748C13.7965 18.7154 13.8193 18.7704 13.8192 18.8276C13.8191 18.8849 13.7961 18.9398 13.7552 18.9802C13.7142 19.0206 13.6588 19.0433 13.6011 19.0431ZM17.0772 19.0431C17.0212 19.0407 16.9683 19.0169 16.9296 18.9767C16.8908 18.9365 16.8692 18.883 16.8692 18.8274C16.8692 18.7718 16.8908 18.7184 16.9296 18.6782C16.9683 18.638 17.0212 18.6142 17.0772 18.6117C17.1319 18.6159 17.1831 18.6404 17.2204 18.6804C17.2577 18.7204 17.2785 18.7729 17.2785 18.8274C17.2785 18.8819 17.2577 18.9344 17.2204 18.9744C17.1831 19.0144 17.1319 19.0389 17.0772 19.0431V19.0431ZM20.5533 19.0431C20.4973 19.0407 20.4444 19.0169 20.4057 18.9767C20.3669 18.9365 20.3453 18.883 20.3453 18.8274C20.3453 18.7718 20.3669 18.7184 20.4057 18.6782C20.4444 18.638 20.4973 18.6142 20.5533 18.6117C20.608 18.6159 20.6592 18.6404 20.6965 18.6804C20.7338 18.7204 20.7545 18.7729 20.7545 18.8274C20.7545 18.8819 20.7338 18.9344 20.6965 18.9744C20.6592 19.0144 20.608 19.0389 20.5533 19.0431V19.0431Z" fill="black"/>
</g>
<path d="M13.5 43L2.67468 24.25H24.3253L13.5 43Z" fill="black"/>
</g>
<defs>
<clipPath id="clip0">
<rect width="27" height="43" fill="white"/>
</clipPath>
<clipPath id="clip1">
<rect width="25.2016" height="25" fill="white" transform="translate(1 -1)"/>
</clipPath>
</defs>
</svg>
