<svg width="70" height="70" viewBox="0 0 70 70" fill="none" xmlns="http://www.w3.org/2000/svg">
<g clip-path="url(#clip0)">
<path d="M69.0962 24.1005L67.6467 22.651C67.6453 22.6496 45.8942 0.898516 45.8942 0.898516C45.3148 0.319102 44.5423 0 43.719 0C42.8957 0 42.1232 0.319102 41.5438 0.898516L34.2933 8.14912C33.7139 8.72853 33.3948 9.501 33.3948 10.3243C33.3948 11.1476 33.7139 11.9201 34.2932 12.4995L35.7434 13.9497L38.0776 16.2839L35.7866 20.1019C34.5742 22.1229 34.8912 24.6982 36.5577 26.365L36.8595 26.6669L31.5852 29.0644C30.5742 29.5239 29.6634 30.1551 28.8783 30.9401L2.14297 57.6752C-0.648695 60.467 -0.719379 65.0137 1.98574 67.8106C3.33543 69.2061 5.14695 69.9836 7.08671 69.9997C7.10736 70 7.12773 70 7.14851 70C9.06544 70 10.8653 69.2547 12.2224 67.8977L39.0291 41.091C39.8142 40.3058 40.4453 39.3951 40.9049 38.3842L43.3024 33.1097L43.6297 33.437C44.6196 34.4269 45.93 34.9407 47.2545 34.9407C48.1602 34.9407 49.0722 34.7004 49.8929 34.2081L53.711 31.9173L56.0438 34.2501C56.0464 34.2527 57.4952 35.7015 57.4952 35.7015C58.0746 36.2809 58.8471 36.6 59.6704 36.6C60.4936 36.6 61.266 36.2811 61.8454 35.7016C61.8456 35.7016 69.0962 28.4509 69.0962 28.4509C70.2955 27.2515 70.2955 25.2998 69.0962 24.1005ZM37.9186 13.2245L39.3687 11.7744L58.2202 30.626L56.7702 32.076L37.9186 13.2245ZM59.6704 29.1758L40.8188 10.3242L42.2688 8.87414L61.1204 27.7257L59.6704 29.1758ZM62.5706 26.2756L43.719 7.4241L46.6192 4.52389L65.4708 23.3754L62.5706 26.2756ZM35.7434 9.59916L42.994 2.34855C43.1859 2.15646 43.4435 2.05078 43.719 2.05078C43.9946 2.05078 44.2519 2.15646 44.444 2.34855L45.169 3.07357L36.4684 11.7742L35.7434 11.0492C35.5513 10.8571 35.4455 10.5995 35.4455 10.324C35.4455 10.0488 35.5513 9.79139 35.7434 9.59916ZM39.0379 37.5354C38.6805 38.3217 38.1897 39.0301 37.579 39.6408L10.7722 66.4476C9.79252 67.4275 8.4848 67.9618 7.1038 67.9491C5.7183 67.9376 4.42425 67.3821 3.45998 66.3849C1.52814 64.3874 1.58802 61.1308 3.59341 59.1254L30.3286 32.3903C30.9392 31.7796 31.6474 31.2888 32.4338 30.9314L38.4083 28.2157L41.7537 31.5611L39.0379 37.5354ZM48.8377 32.4495C47.6251 33.1771 46.0796 32.9868 45.0799 31.9869L38.0077 24.9148C37.0079 23.9148 36.8176 22.3695 37.5449 21.157L39.572 17.7785L52.2161 30.4224L48.8377 32.4495ZM67.646 27.0007L60.3954 34.2513C60.2034 34.4434 59.9459 34.5491 59.6704 34.5491C59.3948 34.5491 59.1375 34.4434 58.9454 34.2513L58.2202 33.5262L66.9209 24.8255L67.6459 25.5505C68.0458 25.9504 68.0458 26.6008 67.646 27.0007Z" fill="#907515"/>
<path d="M30.3692 36.5515C30.3629 36.5515 30.3563 36.5515 30.3499 36.5515C29.5349 36.5565 28.767 36.8783 28.1874 37.4579L18.0366 47.6087C17.6362 48.0092 17.6362 48.6584 18.0366 49.0588C18.4372 49.4592 19.0863 49.4592 19.4868 49.0588L29.6376 38.9079C29.8331 38.7124 30.0906 38.6037 30.3626 38.6021C30.6353 38.6021 30.8859 38.706 31.0749 38.8952C31.268 39.0883 31.3744 39.3457 31.3744 39.6202C31.3744 39.8948 31.268 40.1522 31.0749 40.3453L7.87309 63.5473C7.47305 63.9472 6.82268 63.947 6.42305 63.5473C6.23233 63.3565 6.12828 63.1036 6.12992 62.8348C6.13156 62.5629 6.24012 62.3054 6.43563 62.1099L16.5864 51.9591C16.9869 51.5587 16.9869 50.9094 16.5864 50.5091C16.1859 50.1086 15.5367 50.1086 15.1363 50.5091L4.98559 60.6599C4.40604 61.2394 4.08406 62.0074 4.07914 62.8225C4.07422 63.6438 4.39155 64.4162 4.97274 64.9976C5.57252 65.5973 6.36002 65.8972 7.14793 65.8972C7.93557 65.897 8.72334 65.5972 9.32313 64.9976L32.525 41.7956C33.1055 41.2152 33.4251 40.4426 33.4251 39.6204C33.4251 38.7982 33.1055 38.0256 32.5251 37.4452C31.9483 36.8684 31.1835 36.5515 30.3692 36.5515Z" fill="#907515"/>
</g>
<defs>
<clipPath id="clip0">
<rect width="70" height="70" fill="white"/>
</clipPath>
</defs>
</svg>
