<svg width="180" height="180" viewBox="0 0 180 180" fill="none" xmlns="http://www.w3.org/2000/svg">
<path d="M107.687 143.159C103.186 145.257 101.298 151.227 103.331 156.067L110.446 172.685C112.479 177.362 117.416 179.461 121.772 177.362C134.115 171.554 144.715 163.971 153.137 154.774C163.446 143.966 170.416 131.543 174.192 117.829C177.967 103.952 180 85.0766 180 61.0368V11.5051C180 6.18086 176.079 1.82468 171.288 1.82468H114.221C109.429 1.82468 105.509 6.18086 105.509 11.5051V74.9122C105.509 80.238 109.429 84.5926 114.221 84.5926H141.52C141.23 100.89 137.745 113.957 131.356 123.8C126.128 131.703 118.287 138.156 107.687 143.159ZM5.17081 143.159C0.669398 145.257 -1.21683 151.227 0.814611 156.067L7.92976 172.522C9.96265 177.201 14.8997 179.298 19.2558 177.201C31.4532 171.393 41.9096 163.81 50.4754 154.774C60.7865 143.803 67.9003 131.38 71.6771 117.666C75.4524 104.115 77.3386 85.2364 77.3386 61.0352V11.5035C77.3386 6.17926 73.418 1.82306 68.6263 1.82306H11.5599C6.7681 1.82306 2.8475 6.17926 2.8475 11.5035V74.9106C2.8475 80.2364 6.7681 84.591 11.5599 84.591H39.004C38.7137 100.888 35.2272 113.955 28.8396 123.799C23.612 131.703 15.7709 138.156 5.17081 143.159Z" fill="white" fill-opacity="0.2"/>
</svg>
