<svg width="25" height="25" viewBox="0 0 25 25" fill="none" xmlns="http://www.w3.org/2000/svg">
<path d="M11.1336 22.991C11.1336 21.8838 10.236 20.9862 9.12885 20.9862H4.00945V4.01287H9.12885C10.236 4.01287 11.1336 3.11529 11.1336 2.00815C11.1336 0.901001 10.236 0.00341797 9.12885 0.00341797H2.00473C0.897649 0.00341797 0 0.901001 0 2.00815V22.991C0 24.0981 0.897649 24.9957 2.00473 24.9957H9.12885C10.236 24.9957 11.1336 24.0981 11.1336 22.991Z" fill="white"/>
<path d="M15.9175 8.25747L18.1553 10.4953H10.6861C9.57892 10.4953 8.68134 11.3929 8.68134 12.5C8.68134 13.6071 9.57892 14.5047 10.6861 14.5047H18.1554L15.9176 16.7425C15.5261 17.1339 15.3304 17.647 15.3304 18.1601C15.3304 18.6731 15.5261 19.1862 15.9176 19.5776C16.7005 20.3605 17.9698 20.3605 18.7527 19.5776L24.4127 13.9175C25.1957 13.1347 25.1957 11.8653 24.4127 11.0825L18.7526 5.42239C17.9697 4.63948 16.7004 4.63948 15.9175 5.42239C15.1346 6.20523 15.1346 7.47456 15.9175 8.25747H15.9175Z" fill="white"/>
</svg>
